<svg fill="none" height="401" viewBox="0 0 650 401" width="650" xmlns="http://www.w3.org/2000/svg"><path d="m36.1366 15.3124c-.7472 0-1.2453.6226-1.2453 1.2453v88.4163c0 .623.4981 1.121 1.2453 1.121h55.2913c16.6871 0 30.3851-13.6985 30.3851-30.3856 0-5.3548-1.37-10.4605-3.985-15.0681 2.615-4.4831 3.985-9.5888 3.985-14.9436 0-16.687-13.698-30.3853-30.3851-30.3853zm39.3515 29.7627v-7.5964h2.117c2.117 0 3.8604 1.7434 3.8604 3.8604 0 2.1171-1.7434 3.736-3.8604 3.736zm0 39.2269v-7.7209h2.117c2.117 0 3.8604 1.7435 3.8604 3.8605s-1.7434 3.8604-3.8604 3.8604z" fill="#e4d0ff"/><path d="m176.435 63.5055c-1.743 0-3.238-1.3698-3.238-3.2378v-43.71c0-.7472-.498-1.2453-1.12-1.2453h-40.597c-.747 0-1.245.4981-1.245 1.2453v44.4572c0 25.0305 20.921 45.0801 46.2 45.0801 25.28 0 46.201-20.0496 46.201-45.0801v-44.4572c0-.7472-.498-1.2453-1.245-1.2453h-40.597c-.623 0-1.121.4981-1.121 1.2453v43.71c0 1.868-1.494 3.2378-3.238 3.2378z" fill="#e4d0ff"/><path d="m253.801 59.396c12.453 0 22.416-9.9624 22.416-22.2909 0-12.3284-9.963-21.7927-22.416-21.7927-12.328 0-22.415 9.4643-22.415 21.7927 0 12.3285 10.087 22.2909 22.415 22.2909zm-20.547 2.6151c-.623 0-1.245.6227-1.245 1.2453v41.5926c0 .748.622 1.246 1.245 1.246h41.095c.623 0 1.245-.498 1.245-1.246v-41.5926c0-.6226-.622-1.2453-1.245-1.2453z" fill="#e4d0ff"/><path d="m283.679 104.974c0 .623.498 1.121 1.121 1.121h88.416c.623 0 1.245-.498 1.245-1.121v-25.4041c0-.6227-.622-1.1208-1.245-1.1208h-46.823v-62.016c0-.6226-.623-1.1207-1.246-1.1207h-40.347c-.623 0-1.121.4981-1.121 1.1207z" fill="#e4d0ff"/><path d="m383.823 15.3124c-.747 0-1.245.6226-1.245 1.2453v88.4163c0 .623.498 1.121 1.245 1.121h41.344c25.031 0 45.329-20.4232 45.329-45.3292 0-25.0305-20.298-45.4534-45.204-45.4534zm38.854 49.6875v-8.8417h2.49c2.491 0 4.483 1.9925 4.483 4.4831s-1.992 4.3586-4.483 4.3586z" fill="#e4d0ff"/><path d="m586.594 16.0596c-.124-.4982-.622-.7472-1.121-.7472h-39.6c-.623 0-.996.249-1.245.7472l-30.51 88.4164c-.374.996.124 1.619 1.121 1.619h40.845c.872 0 1.246-.498 1.495-1.246l2.366-7.0978h11.207l2.367 7.0978c.249.748.622 1.246 1.494 1.246h40.721c.996 0 1.495-.623 1.121-1.619zm-17.185 76.4614h-7.721l3.861-11.9549z" fill="#e4d0ff"/><path d="m40.2397 121.748c-1.4432 0-2.4053 1.203-2.4053 2.406v170.776c0 1.203.9621 2.165 2.4053 2.165h79.8563c48.346 0 87.553-39.447 87.553-87.553 0-48.347-39.207-87.794-87.313-87.794zm75.0453 95.972v-17.078h4.811c4.81 0 8.659 3.849 8.659 8.659 0 4.811-3.849 8.419-8.659 8.419z" fill="#e4d0ff"/><path d="m225.805 121.748c-1.443 0-2.405 1.203-2.405 2.406v170.776c0 1.203.962 2.165 2.405 2.165h166.928c1.443 0 2.405-.722 2.405-2.406v-47.865c0-1.443-.962-2.165-2.405-2.165h-88.515v-8.659h57.005c1.443 0 2.165-.721 2.165-2.405v-48.106c0-1.684-.722-2.405-2.165-2.405h-57.005v-8.66h88.515c1.443 0 2.405-.721 2.405-2.405v-47.865c0-1.684-.962-2.406-2.405-2.406z" fill="#e4d0ff"/><path d="m511.385 143.877c-.481 0-.721-.24-2.164-2.405l-12.508-17.799c-.962-1.444-1.684-1.925-2.646-1.925h-84.426c-2.165 0-3.127 1.925-1.924 3.608l55.803 80.097c2.165 3.127 2.405 3.367 2.405 3.848s-.24.722-2.405 3.849l-55.803 80.337c-1.203 1.684-.241 3.608 1.924 3.608h84.426c.962 0 1.684-.241 2.165-.962l12.989-18.762c1.443-2.164 1.683-2.405 2.164-2.405s.722.241 2.165 2.405l12.989 18.762c.481.721 1.202.962 2.165.962h84.426c2.164 0 3.126-1.924 1.924-3.608l-55.803-80.337c-2.165-3.127-2.405-3.368-2.405-3.849s.24-.721 2.405-3.848l55.803-80.097c1.202-1.683.24-3.608-1.924-3.608h-84.426c-.963 0-1.684.481-2.646 1.925l-12.508 17.799c-1.443 2.165-1.684 2.405-2.165 2.405z" fill="#e4d0ff"/><path d="m457.094 155.356h9.04079v44.8646h-9.04079z" fill="#acc756"/><path d="m450.064 165.999h22.4556v32.7926h-22.4556z" fill="#acc756"/><path d="m444.779 177.747h33.0236v27.3355h-33.0236z" fill="#acc756"/><path d="m440.505 188.926h41.961v16.1555h-41.961z" fill="#acc756"/><path d="m465.393 220.113h7.12654v13.6619h-7.12654z" fill="#4fab59"/><path d="m472.34 216.074h7.12654v10.0767h-7.12654z" fill="#4fab59"/><path d="m443.583 216.074h7.12654v10.0767h-7.12654z" fill="#acc756"/><path d="m436.774 211.831h7.12654v8.28122h-7.12654z" fill="#acc756"/><path d="m479.466 211.718h7.12654v8.39418h-7.12654z" fill="#4fab59"/><path d="m457.388 224.467h8.00494v14.8317h-8.00494z" fill="#acc756"/><path d="m450.261 220.113h7.12654v13.6619h-7.12654z" fill="#acc756"/><path d="m461.453 155.356h4.68199v40.004h-4.68199z" fill="#4fab59"/><path d="m463.263 165.834h9.25623v38.3646h-9.25623z" fill="#4fab59"/><path d="m468.956 177.689h9.25623v21.8028h-9.25623z" fill="#4fab59"/><path d="m473.209 189.142h9.25623v15.0571h-9.25623z" fill="#4fab59"/><path d="m436.774 200.221h49.2313v6.84545h-49.2313z" fill="#48786a"/><path d="m443.763 205.082h35.7031v6.84545h-35.7031z" fill="#48786a"/><path d="m450.71 209.228h21.8093v6.84545h-21.8093z" fill="#48786a"/><path d="m457.388 214.151h8.00494v5.96077h-8.00494z" fill="#48786a"/><path d="m0 0h49.2313v6.84545h-49.2313z" fill="#48786a" transform="matrix(1 0 0 -1 436.774 207.067)"/><path d="m0 0h35.7031v6.84545h-35.7031z" fill="#48786a" transform="matrix(1 0 0 -1 443.763 202.207)"/><path d="m0 0h21.8093v6.84545h-21.8093z" fill="#48786a" transform="matrix(1 0 0 -1 450.71 198.06)"/><path d="m0 0h8.00494v6.84545h-8.00494z" fill="#48786a" transform="matrix(1 0 0 -1 457.388 193.136)"/><path d="m461.453 186.355h3.93969v33.7574h-3.93969z" fill="#2c5146"/><path d="m463.959 191.214h8.55951v24.7571h-8.55951z" fill="#2c5146"/><path d="m471.305 195.241h8.16074v16.6865h-8.16074z" fill="#2c5146"/><path d="m478.651 200.221h7.35471v6.84545h-7.35471z" fill="#2c5146"/><path d="m461.453 224.467h3.93969v14.8317h-3.93969z" fill="#4fab59"/><path d="m456.304 181.936h5.35352v3.34221h-5.35352z" fill="#000" transform="matrix(0 -1 1 0 274.368 638.24)"/><path d="m463.26 181.936h5.35352v3.34221h-5.35352z" fill="#000" transform="matrix(0 -1 1 0 281.324 645.196)"/><path d="m456.657 203.233h9.47838v3.34221h-9.47838z" fill="#000"/><path d="m168.772 239.299h101.395v6.72556h-101.395z" fill="#e2b436"/><path d="m410.993 239.299h101.395v6.72556h-101.395z" fill="#e2b436"/><path d="m274.898 372.518h134.551v6.11595h-134.551z" fill="#e2b436"/><path d="m317.71 335.822-30.58 30.58h110.087l-30.579-30.58-6.116-18.348-6.116-6.116h-24.464l-6.116 6.116z" fill="#a6644b"/><path d="m336.058 83.9816h12.2319v233.493h-12.2319z" fill="#a6644b"/><path d="m329.942 102.329h24.4638v18.3479h-24.4638z" fill="#e2b436"/><path d="m354.406 53.4019-6.116-6.116h-12.232l-6.116 6.116v12.2319l6.116 6.1159h12.232l6.116-6.1159z" fill="#e2b436"/><path d="m391.101 108.445h-30.579v6.116l24.464 6.116 12.231 6.116 12.232 12.232h48.928l6.116-6.116 4.026-4.429-4.026-3.228-6.116 1.541h-42.812l-12.232-12.232z" fill="#a6644b"/><path d="m293.256 108.445h31.409v6.116l-25.127 6.116-12.564 6.116-12.564 12.232h-51.78l-5.806-6.116-3.085-4.429 4.135-3.228 4.756 1.541h45.954l12.108-12.232z" fill="#a6644b"/><g fill="#000"><path d="m170.798 378.634h267.202v6.11595h-267.202z"/><path d="m442.402 378.634h67.5981v6.11595h-67.5981z"/><path d="m268.653 378.634h146.783v6.11595h-146.783z"/><path d="m274.898 366.402h134.551v6.11595h-134.551z"/><path d="m299.362 348.054h85.6233v6.11595h-85.6233z"/><path d="m409.449 372.518h6.11595v12.2319h-6.11595z"/><path d="m268.653 372.518h6.11595v12.2319h-6.11595z"/><path d="m287.13 360.286h6.11595v6.11595h-6.11595z"/><path d="m293.246 354.17h6.11595v6.11595h-6.11595z"/><path d="m0 0h6.11595v6.11595h-6.11595z" transform="matrix(-1 0 0 1 397.217 360.286)"/><path d="m0 0h6.11595v6.11595h-6.11595z" transform="matrix(-1 0 0 1 391.102 354.17)"/><path d="m305.478 341.938h6.11595v6.11595h-6.11595z"/><path d="m311.594 335.822h6.11595v6.11595h-6.11595z"/><path d="m323.826 311.358h6.11595v6.11595h-6.11595z"/><path d="m333 120.677h21.4058v6.11595h-21.4058z"/><path d="m329.942 96.2135h24.4638v6.11595h-24.4638z"/><path d="m354.406 83.9816h18.3479v6.11595h-18.3479z" transform="matrix(0 1 -1 0 438.3876 -270.4244)"/><path d="m360.522 102.329h18.3479v6.11595h-18.3479z" transform="matrix(0 1 -1 0 462.851 -258.193)"/><path d="m329.942 102.329h18.3479v6.11595h-18.3479z" transform="matrix(0 1 -1 0 432.271 -227.613)"/><path d="m336.058 83.9816h18.3479v6.11595h-18.3479z" transform="matrix(0 1 -1 0 420.0396 -252.0764)"/><path d="m348.29 83.9816h12.2319v6.11595h-12.2319z" transform="matrix(-1 -0 0 -1 696.58 167.9632)"/><path d="m342.174 83.9816h12.2319v6.11595h-12.2319z" transform="matrix(0 -1 1 0 258.1924 426.1556)"/><path d="m348.29 71.7497h6.11595v6.11595h-6.11595z" transform="matrix(0 -1 1 0 276.5403 420.0397)"/><path d="m348.29 53.4019h6.11595v6.11595h-6.11595z" transform="matrix(0 -1 1 0 294.8881 401.6919)"/><path d="m339.116 41.17h6.11595v6.11595h-6.11595z" transform="matrix(0 -1 1 0 297.946 380.286)"/><path d="m354.406 65.6337h12.2319v6.11595h-12.2319z" transform="matrix(0 -1 1 0 288.7723 420.0397)"/><path d="m336.058 41.17h12.2319v6.11595h-12.2319z"/><path d="m329.942 71.7497h6.11595v6.11595h-6.11595z" transform="matrix(0 -1 1 0 258.1923 401.6917)"/><path d="m391.102 108.445h30.5798v6.11595h-30.5798z" transform="matrix(-1 -0 0 -1 782.204 216.89)"/><path d="m384.985 120.677h24.4638v6.11595h-24.4638z" transform="matrix(-1 -0 0 -1 769.97 241.354)"/><path d="m397.217 132.909h6.11595v6.11595h-6.11595z" transform="matrix(0 -1 1 0 264.308 530.126)"/><path d="m403.333 139.025h6.11595v6.11595h-6.11595z" transform="matrix(0 -1 1 0 264.308 542.358)"/><path d="m409.449 145.141h6.11595v42.8117h-6.11595z" transform="matrix(0 -1 1 0 264.308 554.59)"/><path d="m384.985 126.793h6.11595v12.2319h-6.11595z" transform="matrix(0 -1 1 0 258.192 511.778)"/><path d="m403.333 120.677h6.11595v6.11595h-6.11595z" transform="matrix(0 -1 1 0 282.656 524.01)"/><path d="m409.449 126.793h6.11595v6.11595h-6.11595z" transform="matrix(0 -1 1 0 282.656 536.242)"/><path d="m464.493 132.909h6.11595v6.11595h-6.11595z" transform="matrix(0 -1 1 0 331.584 597.402)"/><path d="m452.261 145.141h6.11595v18.3479h-6.11595z" transform="matrix(0 -1 1 0 307.12 597.402)"/><path d="m404.268 239.299h6.72556v114.335h-6.72556z" transform="matrix(0 -1 1 0 164.969 643.567)"/><path d="m451.347 145.141h6.72556v13.4511h-6.72556z"/><path d="m0 0h6.72556v13.4511h-6.72556z" transform="matrix(-1 0 0 1 471.523 145.141)"/><path d="m444.621 158.592h6.72556v13.4511h-6.72556z"/><path d="m0 0h6.72556v13.4511h-6.72556z" transform="matrix(-1 0 0 1 478.249 158.592)"/><path d="m437.896 172.043h6.72556v13.4511h-6.72556z"/><path d="m0 0h6.72556v13.4511h-6.72556z" transform="matrix(-1 0 0 1 484.974 172.043)"/><path d="m431.17 185.495h6.72556v13.4511h-6.72556z"/><path d="m0 0h6.72556v13.4511h-6.72556z" transform="matrix(-1 0 0 1 491.7 185.495)"/><path d="m424.444 198.946h6.72556v13.4511h-6.72556z"/><path d="m417.719 212.397h6.72556v13.4511h-6.72556z"/><path d="m410.993 225.848h6.72556v6.72556h-6.72556z"/><path d="m0 0h6.72556v13.4511h-6.72556z" transform="matrix(-1 0 0 1 505.151 212.397)"/><path d="m0 0h6.72556v6.72556h-6.72556z" transform="matrix(-1 0 0 1 511.877 225.848)"/><path d="m0 0h6.72556v13.4511h-6.72556z" transform="matrix(-1 0 0 1 498.426 198.946)"/><path d="m404.268 239.299h6.72556v6.72556h-6.72556z"/><path d="m511.877 239.299h6.72556v6.72556h-6.72556z"/><path d="m410.993 246.024h100.883v6.72556h-100.883z"/><path d="m162.559 239.299h6.72556v114.335h-6.72556z" transform="matrix(0 -1 1 0 -76.74 401.858)"/><path d="m209.637 145.141h6.72556v13.4511h-6.72556z"/><path d="m0 0h6.72556v13.4511h-6.72556z" transform="matrix(-1 0 0 1 229.814 145.141)"/><path d="m202.912 158.592h6.72556v13.4511h-6.72556z"/><path d="m0 0h6.72556v13.4511h-6.72556z" transform="matrix(-1 0 0 1 236.54 158.592)"/><path d="m196.186 172.043h6.72556v13.4511h-6.72556z"/><path d="m0 0h6.72556v13.4511h-6.72556z" transform="matrix(-1 0 0 1 243.265 172.043)"/><path d="m189.461 185.495h6.72556v13.4511h-6.72556z"/><path d="m0 0h6.72556v13.4511h-6.72556z" transform="matrix(-1 0 0 1 249.991 185.495)"/><path d="m182.735 198.946h6.72556v13.4511h-6.72556z"/><path d="m176.01 212.397h6.72556v13.4511h-6.72556z"/><path d="m169.284 225.848h6.72556v6.72556h-6.72556z"/><path d="m0 0h6.72556v13.4511h-6.72556z" transform="matrix(-1 0 0 1 263.442 212.397)"/><path d="m0 0h6.72556v6.72556h-6.72556z" transform="matrix(-1 0 0 1 270.167 225.848)"/><path d="m0 0h6.72556v13.4511h-6.72556z" transform="matrix(-1 0 0 1 256.716 198.946)"/><path d="m162.559 239.299h6.72556v6.72556h-6.72556z"/><path d="m270.167 239.299h6.72556v6.72556h-6.72556z"/><path d="m169.284 246.024h100.883v6.72556h-100.883z"/><path d="m210.681 145.141h6.11595v18.3479h-6.11595z" transform="matrix(0 -1 1 0 65.54 355.822)"/><path d="m458.377 126.793h6.11595v12.2319h-6.11595z" transform="matrix(0 -1 1 0 331.584 585.17)"/><path d="m458.377 139.025h6.11595v6.11595h-6.11595z" transform="matrix(0 -1 1 0 319.352 597.402)"/><path d="m415.565 132.909h6.11595v42.8117h-6.11595z" transform="matrix(0 -1 1 0 282.656 548.474)"/><path d="m391.102 114.561h6.11595v12.2319h-6.11595z" transform="matrix(0 -1 1 0 276.541 505.663)"/><path d="m0 0h30.5798v6.11595h-30.5798z" transform="matrix(1 -.00000009 -.00000009 -1 293.246 108.445)"/><path d="m0 0h24.4638v6.11595h-24.4638z" transform="matrix(1 -.00000009 -.00000009 -1 299.362 120.677)"/><path d="m0 0h6.11595v6.11595h-6.11595z" transform="matrix(.00000004 -1 -1 -.00000004 287.13 132.909)"/><path d="m0 0h6.11595v6.11595h-6.11595z" transform="matrix(.00000004 -1 -1 -.00000004 281.014 139.025)"/><path d="m0 0h6.11595v45.8696h-6.11595z" transform="matrix(.00000004 -1 -1 -.00000004 274.898 145.141)"/><path d="m0 0h6.11595v12.2319h-6.11595z" transform="matrix(.00000004 -1 -1 -.00000004 299.362 126.793)"/><path d="m0 0h6.11595v6.11595h-6.11595z" transform="matrix(.00000004 -1 -1 -.00000004 281.014 120.677)"/><path d="m0 0h6.11595v6.11595h-6.11595z" transform="matrix(.00000004 -1 -1 -.00000004 274.898 126.793)"/><path d="m0 0h6.11595v6.11595h-6.11595z" transform="matrix(.00000004 -1 -1 -.00000004 216.797 132.909)"/><path d="m0 0h6.11595v12.2319h-6.11595z" transform="matrix(.00000004 -1 -1 -.00000004 222.913 126.793)"/><path d="m0 0h6.11595v6.11595h-6.11595z" transform="matrix(.00000004 -1 -1 -.00000004 222.913 139.025)"/><path d="m0 0h6.11595v45.8696h-6.11595z" transform="matrix(.00000005 -1 -1 -.00000003 268.782 132.909)"/><path d="m0 0h6.11595v12.2319h-6.11595z" transform="matrix(.00000004 -1 -1 -.00000004 293.246 114.561)"/><path d="m323.826 65.6337h12.2319v6.11595h-12.2319z" transform="matrix(0 -1 1 0 258.1923 389.4597)"/><path d="m329.942 53.4019h6.11595v6.11595h-6.11595z" transform="matrix(0 -1 1 0 276.5401 383.3439)"/><path d="m336.058 83.9816h12.2319v6.11595h-12.2319z" transform="matrix(0 -1 1 0 252.0764 420.0396)"/><path d="m317.71 317.474h6.11595v18.3479h-6.11595z"/><path d="m329.942 120.677h6.11595v190.681h-6.11595z"/><path d="m0 0h6.11595v6.11595h-6.11595z" transform="matrix(-1 0 0 1 360.522 311.358)"/><path d="m0 0h6.11595v18.3479h-6.11595z" transform="matrix(-1 0 0 1 366.638 317.474)"/><path d="m0 0h6.11595v193.132h-6.11595z" transform="matrix(-1 0 0 1 354.406 120.75)"/><path d="m0 0h6.11595v6.11595h-6.11595z" transform="matrix(-1 0 0 1 378.87 341.938)"/><path d="m0 0h6.11595v6.11595h-6.11595z" transform="matrix(-1 0 0 1 372.754 335.822)"/></g><path d="m342.174 134.272h6.11595v179.61h-6.11595z" fill="#d9d9d9"/><path d="m336.058 311.358h18.3479v6.11595h-18.3479z" fill="#8d5540"/><path d="m323.826 354.17h55.0436v6.11595h-55.0436z" fill="#8d5540"/><path d="m360.522 317.474h24.4638v6.11595h-24.4638z" fill="#8d5540" transform="matrix(0 1 -1 0 677.996 -43.048)"/><path d="m348.29 317.474h6.11595v18.3479h-6.11595z" fill="#8d5540"/><path d="m360.522 335.822h6.11595v12.2319h-6.11595z" fill="#8d5540"/><path d="m366.638 341.938h6.11595v6.11595h-6.11595z" fill="#8d5540"/><path d="m378.87 354.17h6.11595v12.2319h-6.11595z" fill="#8d5540"/><path d="m409.449 372.518h6.11595v18.3479h-6.11595z" fill="#dfdfdf" transform="matrix(0 1 -1 0 781.967 -36.931)"/><path d="m511.877 239.299h6.72556v20.1767h-6.72556z" fill="#dfdfdf" transform="matrix(0 1 -1 0 751.176 -272.578)"/><path d="m270.167 239.299h6.72556v20.1767h-6.72556z" fill="#dfdfdf" transform="matrix(0 1 -1 0 509.466 -30.868)"/><path d="m354.406 120.677h6.11595v18.3479h-6.11595z" fill="#dfdfdf" transform="matrix(-1 -0 0 -1 708.812 241.354)"/><path d="m384.986 360.286h6.11595v6.11595h-6.11595z" fill="#8d5540"/><path d="m342.174 102.329h6.11595v6.11595h-6.11595z" fill="#c69d2f"/><path d="m342.174 83.9816h6.11595v12.2319h-6.11595z" fill="#8d5540"/><path d="m342.174 47.2859h6.11595v18.3479h-6.11595z" fill="#c69d2f"/><path d="m348.29 53.4019h6.11595v12.2319h-6.11595z" fill="#c69d2f"/><path d="m226.011 206.348h6.30491v19.6665h-6.30491z" fill="#f77b1d" transform="matrix(0 -1 1 0 19.663 432.359)"/><path d="m226.011 232.32h6.30491v19.6665h-6.30491z" fill="#f77b1d" transform="matrix(0 -1 1 0 -6.309 458.331)"/><path d="m219.707 206.348h6.30491v19.6665h-6.30491z" fill="#f77b1d"/><path d="m226.012 206.348h6.30491v19.6665h-6.30491z" fill="#fbe85d"/><path d="m258.288 226.015h6.30491v19.6665h-6.30491z" fill="#fbe85d" transform="matrix(-1 -0 0 -1 516.576 452.03)"/><path d="m251.983 226.015h6.30491v19.6665h-6.30491z" fill="#fbe85d" transform="matrix(0 1 -1 0 477.998 -25.968)"/><path d="m232.317 206.348h6.30491v19.6665h-6.30491z" fill="#fbe85d" transform="matrix(0 -1 1 0 25.969 438.665)"/><path d="m232.317 206.348h19.6665v19.6665h-19.6665z" fill="#fcaf37"/><path d="m251.983 226.015h6.30491v19.6665h-6.30491z" fill="#f77b1d" transform="matrix(-1 -0 0 -1 503.966 452.03)"/><path d="m232.317 212.653h6.30491v19.6665h-6.30491z" fill="#f77b1d" transform="matrix(0 -1 1 0 19.664 444.97)"/><path d="m237.696 215.274h5.77318v3.34221h-5.77318z" fill="#000" transform="matrix(0 -1 1 0 22.422 452.97)"/><path d="m243.261 215.274h5.77318v3.34221h-5.77318z" fill="#000" transform="matrix(0 -1 1 0 27.987 458.535)"/><path d="m239.368 218.467h5.77318v3.34221h-5.77318z" fill="#000"/><path d="m187.43 206.348h6.30491v19.6665h-6.30491z" fill="#f77b1d" transform="matrix(0 -1 1 0 -18.918 393.778)"/><path d="m187.43 232.32h6.30491v19.6665h-6.30491z" fill="#f77b1d" transform="matrix(0 -1 1 0 -44.89 419.75)"/><path d="m181.125 206.348h6.30491v19.6665h-6.30491z" fill="#f77b1d"/><path d="m187.43 206.348h6.30491v19.6665h-6.30491z" fill="#fbe85d"/><path d="m219.707 226.015h6.30491v19.6665h-6.30491z" fill="#fbe85d" transform="matrix(-1 -0 0 -1 439.414 452.03)"/><path d="m213.402 226.015h6.30491v19.6665h-6.30491z" fill="#fbe85d" transform="matrix(0 1 -1 0 439.417 12.613)"/><path d="m193.735 206.348h6.30491v19.6665h-6.30491z" fill="#fbe85d" transform="matrix(0 -1 1 0 -12.613 400.083)"/><path d="m193.735 206.348h19.6665v19.6665h-19.6665z" fill="#fcaf37"/><path d="m213.401 226.015h6.30491v19.6665h-6.30491z" fill="#f77b1d" transform="matrix(-1 -0 0 -1 426.802 452.03)"/><path d="m193.735 212.653h6.30491v19.6665h-6.30491z" fill="#f77b1d" transform="matrix(0 -1 1 0 -18.918 406.388)"/><path d="m202.05 221.724h7.26678v2.77065h-7.26678z" fill="#000" transform="matrix(.70710678 -.70710678 .70710678 .70710678 -97.603469 207.812381)"/><path d="m200.863 216.585h5.21319v2.77065h-5.21319z" fill="#000" transform="matrix(.70710678 .70710678 -.70710678 .70710678 211.980133 -78.595312)"/><path d="m197.819 209.501h3.56769v3.56504h-3.56769z" fill="#000"/><path d="m206.584 209.501h3.56769v3.56504h-3.56769z" fill="#000"/><path d="m207.745 174.072h6.30491v19.6665h-6.30491z" fill="#f77b1d" transform="matrix(0 -1 1 0 33.673 381.817)"/><path d="m207.745 200.043h6.30491v19.6665h-6.30491z" fill="#f77b1d" transform="matrix(0 -1 1 0 7.702 407.788)"/><path d="m201.44 174.072h6.30491v19.6665h-6.30491z" fill="#f77b1d"/><path d="m207.744 174.072h6.30491v19.6665h-6.30491z" fill="#fbe85d"/><path d="m240.021 193.738h6.30491v19.6665h-6.30491z" fill="#fbe85d" transform="matrix(-1 -0 0 -1 480.042 387.476)"/><path d="m233.716 193.738h6.30491v19.6665h-6.30491z" fill="#fbe85d" transform="matrix(0 1 -1 0 427.454 -39.978)"/><path d="m214.049 174.072h6.30491v19.6665h-6.30491z" fill="#fbe85d" transform="matrix(0 -1 1 0 39.977 388.121)"/><path d="m214.05 174.072h19.6665v19.6665h-19.6665z" fill="#fcaf37"/><path d="m233.716 193.738h6.30491v19.6665h-6.30491z" fill="#f77b1d" transform="matrix(-1 -0 0 -1 467.432 387.476)"/><path d="m214.05 180.377h6.30491v19.6665h-6.30491z" fill="#f77b1d" transform="matrix(0 -1 1 0 33.673 394.427)"/><path d="m216.054 182.997h5.77318v3.34221h-5.77318z" fill="#000" transform="matrix(0 -1 1 0 33.057 399.051)"/><path d="m221.619 182.997h5.77318v3.34221h-5.77318z" fill="#000" transform="matrix(0 -1 1 0 38.622 404.616)"/><path d="m227.411 190.097h4.46806v4.58155h-4.46806z" fill="#000" transform="matrix(0 -1 1 0 37.314 417.508)"/></svg>