<svg fill="none" height="401" viewBox="0 0 650 401" width="650" xmlns="http://www.w3.org/2000/svg"><path d="m59.7576 70.8347c0-.6872-.5726-1.2599-1.3744-1.2599h-37.9105c-.8017 0-1.3744.5727-1.3744 1.2599 0 17.5236 19.8143 26.9153 42.4919 26.9153 28.6333 0 43.7518-10.1934 43.7518-26.5717 0-17.5236-15.1185-27.9461-43.8664-27.9461-2.9778 0-3.2069-2.0616-3.2069-2.8634 0-1.4889 1.4889-2.7488 3.3215-2.7488 1.718 0 3.2069 1.0308 3.2069 2.6343 0 1.0308.6872 1.6035 1.6035 1.6035h36.7654c.801 0 1.374-.5727 1.374-1.2599 0-17.18-19.9286-26.3427-42.3772-26.3427-22.563 0-43.6372 11.4534-43.6372 27.6026 0 17.6381 17.7527 25.8845 43.2936 25.999 2.6343 0 4.3523 1.2599 4.3523 3.3215 0 1.4889-1.3744 2.7488-3.0924 2.7488-2.0616 0-3.3215-1.0308-3.3215-3.0924z" fill="#e4d0ff"/><path d="m112.056 14.2552c-.573 0-1.031.4582-1.031 1.0308v40.2012c0 .5727.458 1.0308 1.031 1.0308h20.845v40.2012c0 .5727.458 1.0308 1.03 1.0308h37.224c.572 0 1.145-.4581 1.145-1.0308v-40.2012h20.845c.573 0 1.031-.4581 1.031-1.0308v-40.2012c0-.5726-.458-1.0308-1.031-1.0308z" fill="#e4d0ff"/><path d="m258.55 14.9424c-.115-.4581-.573-.6872-1.031-.6872h-36.422c-.572 0-.916.2291-1.145.6872l-28.061 81.3187c-.343.9163.115 1.4889 1.031 1.4889h37.567c.802 0 1.146-.4581 1.375-1.1453l2.176-6.5284h10.308l2.176 6.5284c.229.6872.573 1.1453 1.374 1.1453h37.453c.916 0 1.374-.5726 1.03-1.4889zm-15.806 70.3235h-7.101l3.551-10.9952z" fill="#e4d0ff"/><path d="m293.938 14.2552c-.687 0-1.145.3437-1.145 1.1454v81.2041c0 .6872.458 1.1453 1.145 1.1453h37.796c.687 0 1.145-.4581 1.145-1.1453v-27.3735h3.207l11.454 27.3735c.343.6872.572 1.1453 1.489 1.1453h38.826c.802 0 1.031-.3436.573-1.3744l-16.951-40.2012 16.951-40.5447c.458-1.0308.229-1.3745-.573-1.3745h-38.712c-.916 0-1.145.4582-1.489 1.1454l-11.797 28.1752h-2.978v-28.1752c0-.5727-.458-1.1454-1.145-1.1454z" fill="#e4d0ff"/><path d="m415.527 54.8c11.453 0 20.616-9.1626 20.616-20.5014s-9.163-20.0434-20.616-20.0434c-11.339 0-20.616 8.7046-20.616 20.0434s9.277 20.5014 20.616 20.5014zm-18.898 2.4052c-.573 0-1.146.5727-1.146 1.1454v38.2541c0 .6872.573 1.1453 1.146 1.1453h37.796c.572 0 1.145-.4581 1.145-1.1453v-38.2541c0-.5727-.573-1.1454-1.145-1.1454z" fill="#e4d0ff"/><path d="m483.551 55.7163c0-.2291.229-.2291.229 0l5.268 41.0029c.115.4582.458.9163.916 1.0308h37.567c.573 0 1.146-.4581 1.146-1.0308v-81.3186c0-.6872-.573-1.1454-1.146-1.1454h-37.223c-.573 0-1.031.4582-1.031 1.1454v39.9721c0 .2291-.229.2291-.229 0l-5.154-40.0867c-.114-.6871-.572-1.0308-1.26-1.0308h-37.452c-.573 0-1.031.4582-1.031 1.1454v81.3186c0 .5727.458 1.0308 1.031 1.0308h37.223c.573 0 1.146-.4581 1.146-1.0308z" fill="#e4d0ff"/><path d="m583.236 57.8924c-.344 0-.687.1146-.917.4582-.916 1.4889-2.29 2.2906-3.894 2.2906-2.634 0-4.696-2.0616-4.696-4.6958 0-2.5198 2.062-4.5814 4.696-4.5814 1.604 0 2.864.6872 3.894 2.1762.23.3436.573.5726.917.5726h35.963c1.031 0 1.26-.3436 1.146-1.3744-1.718-21.9904-20.158-38.4832-41.92-38.4832-23.25 0-42.262 18.5544-42.262 41.6902 0 23.2502 19.012 41.8046 42.262 41.8046 12.599 0 24.167-5.2685 31.841-14.3166h9.162c.573 0 1.031-.5727 1.031-1.1454v-23.2502c0-.5727-.344-1.1454-.916-1.1454z" fill="#e4d0ff"/><path d="m168.241 108.448c-.254-1.014-1.268-1.521-2.282-1.521h-80.6227c-1.2677 0-2.0283.507-2.5353 1.521l-62.1149 180.006c-.7606 2.028.2536 3.296 2.2818 3.296h83.1581c1.774 0 2.535-1.014 3.042-2.535l4.817-14.451h22.818l4.817 14.451c.507 1.521 1.268 2.535 3.042 2.535h82.905c2.028 0 3.042-1.268 2.281-3.296zm-34.988 155.667h-15.718l7.859-24.339z" fill="#e4d0ff"/><path d="m249.051 106.927c-1.774 0-2.535 1.267-2.535 2.788v179.753c0 1.521 1.014 2.282 2.535 2.282h83.158c1.521 0 2.789-1.268 2.789-2.789v-54.002h27.888c34.48 0 62.622-28.142 62.622-65.157 0-34.48-28.142-62.875-62.622-62.875zm83.158 72.509v-15.719h4.31c4.564 0 8.113 3.55 8.113 7.86 0 4.563-3.549 7.859-8.113 7.859z" fill="#e4d0ff"/><path d="m441.922 106.927c-1.774 0-2.535 1.267-2.535 2.788v179.753c0 1.521 1.014 2.282 2.535 2.282h83.158c1.521 0 2.789-1.268 2.789-2.789v-54.002h27.888c34.48 0 62.622-28.142 62.622-65.157 0-34.48-28.142-62.875-62.622-62.875zm83.158 72.509v-15.719h4.31c4.564 0 8.113 3.55 8.113 7.86 0 4.563-3.549 7.859-8.113 7.859z" fill="#e4d0ff"/><path d="m360 376.75h172.362v6h-172.362z" fill="#000"/><path d="m0 0h175.638v6h-175.638z" fill="#000" transform="matrix(-1 0 0 1 354 376.75)"/><path d="m128.679 376.75h42.4023v6h-42.4023z" fill="#000"/><path d="m374.463 363.603 7.487-4.911h129.887l4.857 6.174v5.612l-4.857 6.732h-132.58l-4.794-6.732z" fill="#ffd850"/><path d="m376.362 373.75h138v6h-138z" fill="#000"/><path d="m376.362 355.75h138v6h-138z" fill="#000"/><path d="m514.362 361.75h6v12h-6z" fill="#000"/><path d="m370.362 361.75h6v12h-6z" fill="#000"/><path d="m336.262 363.603-7.488-4.911h-129.886l-4.858 6.174v5.612l4.858 6.732h132.58l4.794-6.732z" fill="#ffd850"/><path d="m0 0h138v6h-138z" fill="#000" transform="matrix(-1 0 0 1 334.362 373.75)"/><path d="m0 0h138v6h-138z" fill="#000" transform="matrix(-1 0 0 1 334.362 355.75)"/><path d="m0 0h6v12h-6z" fill="#000" transform="matrix(-1 0 0 1 196.362 361.75)"/><path d="m0 0h6v12h-6z" fill="#000" transform="matrix(-1 0 0 1 340.362 361.75)"/><path d="m201.78 299.747 7.488-4.911h129.886l4.858 6.174v5.612l-4.858 6.732h-132.58l-4.794-6.732z" fill="#ffd850"/><path d="m203.679 309.894h138v6h-138z" fill="#000"/><path d="m203.679 291.894h138v6h-138z" fill="#000"/><path d="m341.679 297.894h6v12h-6z" fill="#000"/><path d="m197.679 297.894h6v12h-6z" fill="#000"/><path d="m342.262 342.545-7.488-4.911h-129.886l-4.858 6.174v5.612l4.858 6.732h132.58l4.794-6.732z" fill="#ffd850"/><path d="m0 0h138v6h-138z" fill="#000" transform="matrix(-1 0 0 1 340.362 352.692)"/><path d="m0 0h138v6h-138z" fill="#000" transform="matrix(-1 0 0 1 340.362 334.692)"/><path d="m0 0h6v12h-6z" fill="#000" transform="matrix(-1 0 0 1 202.362 340.692)"/><path d="m0 0h6v12h-6z" fill="#000" transform="matrix(-1 0 0 1 346.362 340.692)"/><path d="m368.463 342.545 7.487-4.911h129.887l4.857 6.174v5.612l-4.857 6.732h-132.58l-4.794-6.732z" fill="#ffd850"/><path d="m370.362 352.692h138v6h-138z" fill="#000"/><path d="m370.362 334.692h138v6h-138z" fill="#000"/><path d="m508.362 340.692h6v12h-6z" fill="#000"/><path d="m364.362 340.692h6v12h-6z" fill="#000"/><path d="m330.403 320.805-7.487-4.911h-129.887l-4.857 6.174v5.612l4.857 6.733h132.58l4.794-6.733z" fill="#ffd850"/><path d="m0 0h138v6h-138z" fill="#000" transform="matrix(-1 0 0 1 328.504 330.952)"/><path d="m0 0h138v6h-138z" fill="#000" transform="matrix(-1 0 0 1 328.504 312.952)"/><path d="m0 0h6v12h-6z" fill="#000" transform="matrix(-1 0 0 1 190.504 318.952)"/><path d="m0 0h6v12h-6z" fill="#000" transform="matrix(-1 0 0 1 334.504 318.952)"/><path d="m195.78 278.689 7.488-4.911h129.886l4.858 6.174v5.612l-4.858 6.732h-132.58l-4.794-6.732z" fill="#ffd850"/><path d="m197.679 288.836h138v6h-138z" fill="#000"/><path d="m197.679 270.836h138v6h-138z" fill="#000"/><path d="m335.679 276.836h6v12h-6z" fill="#000"/><path d="m191.679 276.836h6v12h-6z" fill="#000"/><path d="m378.564 320.805 7.487-4.911h129.887l4.857 6.174v5.612l-4.857 6.733h-132.58l-4.794-6.733z" fill="#ffd850"/><path d="m380.463 330.952h138v6h-138z" fill="#000"/><path d="m380.463 312.952h138v6h-138z" fill="#000"/><path d="m518.463 318.952h6v12h-6z" fill="#000"/><path d="m374.463 318.952h6v12h-6z" fill="#000"/><path d="m197.463 256.949 7.488-4.911h129.886l4.857 6.174v5.612l-4.857 6.733h-132.58l-4.794-6.733z" fill="#ffd850"/><path d="m199.362 267.096h138v6h-138z" fill="#000"/><path d="m199.362 249.096h138v6h-138z" fill="#000"/><path d="m337.362 255.096h6v12h-6z" fill="#000"/><path d="m193.362 255.096h6v12h-6z" fill="#000"/><path d="m190.927 236.054 2.819 8.499-33.415 125.514-7.216 3.106-5.423-1.444-5.256-6.426 34.108-128.117 7.739-2.901z" fill="#ffd850"/><path d="m180.633 235.279h138v6h-138z" fill="#000" transform="matrix(-.25726772 .96634017 -.96634017 -.25726772 454.463589 121.255769)"/><path d="m198.027 239.909h138v6h-138z" fill="#000" transform="matrix(-.25726772 .96634017 -.96634017 -.25726772 480.806658 110.268398)"/><path d="m156.726 371.721h6v12h-6z" fill="#000" transform="matrix(-.25726772 .96634017 -.96634017 -.25726772 556.255474 315.902186)"/><path d="m193.772 232.568h6v12h-6z" fill="#000" transform="matrix(-.25726772 .96634017 -.96634017 -.25726772 468.363081 105.150573)"/><path d="m295 94.4554-8.993-4.8776-40.891-1.4386-6.243 4.9492-6.396.6853-5.939 6.5483-6.548 6.472-5.711 6.624-4.949 4.569-2.285 8.892-4.796 5.042.913 32.512 4.264 5.178 1.218 7.766 6.396 5.635 4.036 5.558 7.538 6.396 4.035 5.558 7.005 1.599 5.787 4.188 41.802-.457 13.401-4.72 5.711-6.625 7.005-6.7 5.71-6.93 4.493-3.502 1.294-8.498 4.569-4.37.761-31.63-4.949-6-.685-6-6.625-8.298-7.386-6.549-4.187-6.0909-4.417-3.0623z" fill="#ffd850"/><path d="m241 84.8789h48v6.3h-48z" fill="#000"/><path d="m0 0h48v6.3h-48z" fill="#000" transform="matrix(1 0 0 -1 241 210.879)"/><path d="m307 103.779h6v6.3h-6z" fill="#000"/><path d="m0 0h6v6.3h-6z" fill="#000" transform="matrix(-1 0 0 1 223 103.779)"/><path d="m301 97.479h6v6.3h-6z" fill="#000"/><path d="m0 0h6v6.3h-6z" fill="#000" transform="matrix(-1 0 0 1 229 97.479)"/><path d="m313 110.079h6v6.3h-6z" fill="#000"/><path d="m0 0h6v6.3h-6z" fill="#000" transform="matrix(-1 0 0 1 217 110.079)"/><path d="m319 116.379h6v12.6h-6z" fill="#000"/><path d="m0 0h6v12.6h-6z" fill="#000" transform="matrix(-1 0 0 1 211 116.379)"/><path d="m0 0h6v6.3h-6z" fill="#000" transform="matrix(1 0 0 -1 307 191.979)"/><path d="m289 91.179h12v6.3h-12z" fill="#000"/><path d="m0 0h12v6.3h-12z" fill="#000" transform="matrix(-1 0 0 1 241 91.179)"/><path d="m223 191.979h6v6.3h-6z" fill="#000" transform="matrix(-1 0 -0 -1 446 383.958)"/><path d="m0 0h6v6.3h-6z" fill="#000" transform="matrix(1 0 0 -1 301 198.279)"/><path d="m229 198.279h6v6.3h-6z" fill="#000" transform="matrix(-1 0 -0 -1 458 396.558)"/><path d="m0 0h6v6.3h-6z" fill="#000" transform="matrix(1 0 0 -1 313 185.679)"/><path d="m217 185.679h6v6.3h-6z" fill="#000" transform="matrix(-1 0 -0 -1 434 371.358)"/><path d="m0 0h6v12.6h-6z" fill="#000" transform="matrix(1 0 0 -1 319 179.379)"/><path d="m211 179.379h6v12.6h-6z" fill="#000" transform="matrix(-1 0 -0 -1 422 358.758)"/><path d="m325 128.979h6v37.8h-6z" fill="#000"/><path d="m199 128.979h6v37.8h-6z" fill="#000"/><path d="m0 0h12v6.3h-12z" fill="#000" transform="matrix(1 0 0 -1 289 204.579)"/><path d="m241 204.579h12v6.3h-12z" fill="#000" transform="matrix(-1 0 -0 -1 482 409.158)"/><g fill="#cf8934"><path d="m305.281 171.214h-3.73v3.729h3.73z"/><path d="m301.551 142.321h-14.844v-14.868h3.705v-3.705h-3.705v-3.73h-40.853v3.73h-3.729v3.705h-3.705v3.705h-3.705v3.729h-3.729v3.705h-3.705v11.139h3.705v-3.705h18.573v7.435h3.705v7.41h3.73v7.434h3.705v7.434h3.729v-29.713h14.844v7.435h-3.705v7.41h-3.729v7.434h-3.705v7.434h-3.705v3.705h-3.729v3.73h3.729v3.705h3.705v-3.705h3.705v-3.73h3.729v-3.705h3.705v-3.705h3.73v-3.729h3.705v-3.705h3.705v-3.729h3.729v-3.705h3.705v-3.705h3.705v-3.73h3.73v-11.139h-3.73zm-22.279 0h-26.008v-3.729h-3.705v-14.844h14.869v3.705h3.705v3.705h3.705v3.729h3.729v3.705h3.705z"/><path d="m301.551 134.887h-3.705v3.705h3.705z"/><path d="m297.846 131.158h-3.705v3.729h3.705z"/><path d="m296.006 112.608h-3.73v3.705h3.73v3.73h3.705v-3.73h3.705v-3.705h-3.705v-3.729h-3.705z"/><path d="m294.141 127.453h-3.729v3.705h3.729z"/><path d="m294.141 177.174h-3.705v3.705h3.705z"/><path d="m286.705 103.779h-3.705v3.705h3.705z"/><path d="m264.428 127.453h-3.729v3.705h3.729z"/><path d="m274.086 110.719h-3.729v3.729h3.729z"/><path d="m260.699 175.739h-3.705v3.705h3.705z"/><path d="m260.699 131.158h-3.705v3.729h3.705z"/><path d="m256.994 172.034h-3.73v3.705h3.73z"/><path d="m256.994 134.887h-3.73v3.705h3.73z"/><path d="m250.705 180.109h-3.705v3.73h3.705z"/><path d="m253.264 168.305h-3.705v3.729h3.705z"/><path d="m249.559 164.6h-3.705v3.705h3.705z"/><path d="m245.854 160.87h-3.729v3.73h3.729z"/><path d="m242.125 157.166h-3.705v3.705h3.705z"/><path d="m233.59 174.539v3.73h-3.729v3.705h3.729v3.705h3.705v-3.705h3.705v-3.705h-3.705v-3.73z"/><path d="m238.42 153.461h-3.705v3.705h3.705z"/><path d="m234.715 149.731h-3.729v3.729h3.729z"/><path d="m242.015 112.584h-3.705v3.705h3.705z"/><path d="m238.31 116.289h-3.705v3.729h3.705z"/><path d="m238.31 108.854h-3.705v3.73h3.705z"/><path d="m234.605 112.584h-3.73v3.705h3.73z"/><path d="m230.986 160.87h-3.705v3.73h3.705z"/></g><path d="m459.915 311.583h-23.333v-5.833h-5.834v11.666h35v-11.666h-5.833z" fill="#231e2b"/><path d="m459.915 305.75h-5.833v5.833h5.833z" fill="#f5f38e"/><path d="m454.082 305.75h-11.667v5.833h11.667z" fill="#e2b436"/><path d="m442.415 305.75h-5.833v5.833h5.833z" fill="#f5f38e"/><path d="m448.248 299.917h-5.833v5.833h11.667v-11.667h-5.834z" fill="#f5f38e"/><path d="m448.248 294.083h-5.833v5.834h5.833z" fill="#e2b436"/><path d="m436.582 305.75h5.833v-23.333h-11.667v5.833h5.834z" fill="#231e2b"/><path d="m454.082 282.417v23.333h5.833v-17.5h5.833v-5.833z" fill="#231e2b"/><path d="m454.082 282.417h-11.667v11.666h11.667z" fill="#cf8934"/><path d="m477.415 276.583h-11.667v5.834h11.667z" fill="#231e2b"/><path d="m465.748 276.583h-5.833v5.834h5.833z" fill="#cf8934"/><path d="m454.082 276.583v-5.833h5.833v-23.333h-35v23.333h5.833v5.833h5.834v5.834h23.333v-5.834z" fill="#e2b436"/><path d="m436.582 276.583h-5.834v5.834h5.834z" fill="#cf8934"/><path d="m430.749 276.583h-11.667v5.834h11.667z" fill="#231e2b"/><path d="m483.248 270.75h-5.833v5.833h5.833z" fill="#231e2b"/><path d="m477.415 270.75h-11.667v5.833h11.667z" fill="#cf8934"/><path d="m465.748 270.75h-5.833v5.833h5.833z" fill="#e2b436"/><path d="m459.915 270.75h-5.833v5.833h5.833z" fill="#f5f38e"/><path d="m430.749 270.75h-11.667v5.833h11.667z" fill="#cf8934"/><path d="m419.082 270.75h-5.834v5.833h5.834z" fill="#231e2b"/><path d="m483.248 264.917h-5.833v5.833h5.833z" fill="#cf8934"/><path d="m424.915 253.25h-5.833v17.5h5.833z" fill="#231e2b"/><path d="m419.082 264.917h-5.834v5.833h5.834z" fill="#cf8934"/><path d="m413.248 247.417h-5.833v23.333h5.833z" fill="#231e2b"/><path d="m489.082 247.417h-5.834v23.333h5.834z" fill="#231e2b"/><path d="m477.415 253.25h-5.833v17.5h5.833z" fill="#231e2b"/><path d="m419.082 253.25h-5.834v11.667h5.834z" fill="#e2b436"/><path d="m483.248 253.25h-5.833v11.667h5.833z" fill="#e2b436"/><path d="m483.248 247.417h-5.833v5.833h5.833z" fill="#f5f38e"/><path d="m477.415 247.417h-5.833v5.833h5.833z" fill="#cf8934"/><path d="m471.582 247.417h-5.834v23.333h5.834z" fill="#e2b436"/><path d="m424.915 247.417h-5.833v5.833h5.833z" fill="#cf8934"/><path d="m419.082 247.417h-5.834v5.833h5.834z" fill="#f5f38e"/><path d="m483.248 241.583h-11.666v5.834h11.666z" fill="#231e2b"/><path d="m459.915 247.417v23.333h5.833v-23.333h5.834v-5.834h-46.667v5.834z" fill="#f5f38e"/><path d="m424.915 241.583h-11.667v5.834h11.667z" fill="#231e2b"/><path d="m471.582 235.75h-46.667v5.833h46.667z" fill="#231e2b"/><path d="m190 94.629h-6v6h6z" fill="#231e2b"/><path d="m190 88.6292h-6v6h6z" fill="#4fab59"/><path d="m196 76.6286h-6v18h6z" fill="#231e2b"/><path d="m190 82.6291h-6v6h6z" fill="#acc756"/><path d="m184 76.6286h-6v18h6z" fill="#231e2b"/><path d="m202 70.629h-6v6h6z" fill="#231e2b"/><path d="m196 70.629h-6v6h6z" fill="#4fab59"/><path d="m184 70.629h-6v6h6z" fill="#4fab59"/><path d="m178 70.629h-6v6h6z" fill="#231e2b"/><path d="m190 58.6295h-6v23.9996h6z" fill="#acc756"/><path d="m184 52.6291h-6v18h6z" fill="#231e2b"/><path d="m196 52.6291h-6v18h6z" fill="#231e2b"/><path d="m190 52.6291h-6v6h6z" fill="#4fab59"/><path d="m190 46.6295h-6v6h6z" fill="#231e2b"/><path d="m501.082 216.729h-6v6h6z" fill="#231e2b"/><path d="m507.082 210.729h-6v6h6z" fill="#231e2b"/><path d="m501.082 210.729h-6v6h6z" fill="#4fab59"/><path d="m495.082 210.729h-6v6h6z" fill="#231e2b"/><path d="m513.082 204.729h-6v6h6z" fill="#231e2b"/><path d="m507.082 204.729h-6v6h6z" fill="#4fab59"/><path d="m495.082 204.729h-6v6h6z" fill="#4fab59"/><path d="m489.082 204.729h-6v6h6z" fill="#231e2b"/><path d="m507.082 198.729h-6v6h6z" fill="#231e2b"/><path d="m501.082 198.729h-6v6h6z" fill="#4fab59"/><path d="m501.082 204.725h-6v6h6z" fill="#acc756"/><path d="m495.082 198.729h-6v6h6z" fill="#231e2b"/><path d="m501.082 192.729h-6v6h6z" fill="#231e2b"/><path d="m159.679 151.166h-6v6h6z" fill="#231e2b"/><path d="m165.679 145.166h-6v6h6z" fill="#231e2b"/><path d="m159.679 145.166h-6v6h6z" fill="#4fab59"/><path d="m153.679 145.166h-6v6h6z" fill="#231e2b"/><path d="m171.679 139.166h-6v6h6z" fill="#231e2b"/><path d="m165.679 139.166h-6v6h6z" fill="#4fab59"/><path d="m153.679 139.166h-6v6h6z" fill="#4fab59"/><path d="m147.679 139.166h-6v6h6z" fill="#231e2b"/><path d="m165.679 133.166h-6v6h6z" fill="#231e2b"/><path d="m159.679 133.166h-6v6h6z" fill="#4fab59"/><path d="m159.679 139.162h-6v6h6z" fill="#acc756"/><path d="m153.679 133.166h-6v6h6z" fill="#231e2b"/><path d="m159.679 127.166h-6v6h6z" fill="#231e2b"/><path d="m476.88 169.75h-4.596v13.79h4.596z" fill="#231e2b"/><path d="m467.687 174.347v4.596h13.79v-4.596z" fill="#231e2b"/></svg>