<svg width="650" height="401" viewBox="0 0 650 401" fill="none" xmlns="http://www.w3.org/2000/svg">
<path d="M23.6509 23.0303H120.498C121.182 23.0303 121.729 23.5774 121.729 24.2614V72.2746C121.729 72.9585 121.182 73.5057 120.498 73.5057H95.6023V121.519C95.6023 122.203 94.9183 122.75 94.2344 122.75H49.7777C49.0937 122.75 48.5466 122.203 48.5466 121.519V73.5057H23.6509C22.9669 73.5057 22.4197 72.9585 22.4197 72.2746V24.2614C22.4197 23.5774 22.9669 23.0303 23.6509 23.0303ZM178.821 23.0303C206.589 23.0303 229.023 45.1902 229.023 72.9585C229.023 100.727 206.589 122.75 178.821 122.75C151.052 122.75 128.619 100.727 128.619 72.9585C128.619 45.1902 151.052 23.0303 178.821 23.0303ZM178.821 77.7462C181.42 77.7462 183.608 75.6943 183.608 72.9585C183.608 70.3595 181.42 68.1709 178.821 68.1709C176.222 68.1709 174.033 70.3595 174.033 72.9585C174.033 75.6943 176.222 77.7462 178.821 77.7462ZM238.072 23.0303H283.213C284.033 23.0303 284.581 23.7142 284.581 24.3982V58.0484H288.137L302.226 24.3982C302.637 23.5774 302.91 23.0303 304.005 23.0303H350.24C351.197 23.0303 351.471 23.4406 350.924 24.6717L330.679 73.0953L350.924 121.109C351.471 122.34 351.197 122.75 350.24 122.75H303.868C302.774 122.75 302.5 122.203 302.09 121.382L288.411 88.6894H284.581V121.382C284.581 122.203 284.033 122.75 283.213 122.75H238.072C237.251 122.75 236.704 122.203 236.704 121.382V24.3982C236.704 23.4406 237.251 23.0303 238.072 23.0303ZM361.402 23.0303H456.334C457.155 23.0303 457.702 23.4406 457.702 24.3982V51.6193C457.702 52.5769 457.155 52.9872 456.334 52.9872H405.995V57.9117H438.414C439.235 57.9117 439.646 58.322 439.646 59.2796V86.6375C439.646 87.595 439.235 88.0054 438.414 88.0054H405.995V92.9298H456.334C457.155 92.9298 457.702 93.3402 457.702 94.1609V121.382C457.702 122.34 457.155 122.75 456.334 122.75H361.402C360.581 122.75 360.034 122.203 360.034 121.519V24.3982C360.034 23.7142 360.581 23.0303 361.402 23.0303ZM513.689 72.5482V121.519C513.689 122.203 513.005 122.75 512.322 122.75H467.865C467.181 122.75 466.634 122.203 466.634 121.519V24.3982C466.634 23.5774 467.181 23.0303 467.865 23.0303H512.595C513.416 23.0303 513.963 23.4406 514.1 24.2614L520.255 72.1378C520.255 72.4114 520.529 72.4114 520.529 72.1378V24.3982C520.529 23.5774 521.076 23.0303 521.76 23.0303H566.217C566.901 23.0303 567.585 23.5774 567.585 24.3982V121.519C567.585 122.203 566.901 122.75 566.217 122.75H521.35C520.803 122.613 520.392 122.066 520.255 121.519L513.963 72.5482C513.963 72.2746 513.689 72.2746 513.689 72.5482ZM601.831 71.4538C588.289 71.4538 577.209 60.5107 577.209 46.9685C577.209 33.4263 588.289 23.0303 601.831 23.0303C615.51 23.0303 626.453 33.4263 626.453 46.9685C626.453 60.5107 615.51 71.4538 601.831 71.4538ZM579.261 74.3264H624.402C625.085 74.3264 625.769 75.0104 625.769 75.6943V121.382C625.769 122.203 625.085 122.75 624.402 122.75H579.261C578.577 122.75 577.893 122.203 577.893 121.382V75.6943C577.893 75.0104 578.577 74.3264 579.261 74.3264ZM98.2317 190.732H121.568C122.267 190.732 122.826 191.291 122.826 191.99V233.492C122.826 234.191 122.267 234.75 121.568 234.75H24.0306C22.9127 234.75 21.9345 233.912 22.7729 232.235L47.9258 178.156C48.0656 177.876 48.2053 177.597 48.0656 177.318C47.9258 177.038 47.5066 177.038 47.3669 177.038H23.7511C23.0524 177.038 22.4935 176.479 22.4935 175.78V134.278C22.4935 133.579 23.0524 132.881 23.7511 132.881H121.288C122.406 132.881 123.385 133.719 122.546 135.536L97.6727 189.615C97.533 189.894 97.3932 190.173 97.533 190.453C97.6727 190.732 98.0919 190.732 98.2317 190.732ZM211.081 133.719L245.038 232.933C245.457 234.051 244.898 234.75 243.78 234.75H198.086C197.107 234.75 196.688 234.191 196.409 233.353L193.754 225.388H181.177L178.522 233.353C178.243 234.191 177.824 234.75 176.845 234.75H131.011C129.893 234.75 129.334 234.051 129.754 232.933L163.989 133.719C164.269 133.16 164.688 132.881 165.387 132.881H209.824C210.383 132.881 210.942 133.16 211.081 133.719ZM183.134 219.519H191.797L187.466 206.104L183.134 219.519ZM243.593 132.881H342.528C343.227 132.881 343.786 133.44 343.786 134.138V183.187C343.786 183.885 343.227 184.444 342.528 184.444H317.096V233.492C317.096 234.191 316.397 234.75 315.698 234.75H270.283C269.585 234.75 269.026 234.191 269.026 233.492V184.444H243.593C242.895 184.444 242.336 183.885 242.336 183.187V134.138C242.336 133.44 242.895 132.881 243.593 132.881ZM376.676 182.348C362.842 182.348 351.523 171.169 351.523 157.335C351.523 143.501 362.842 132.881 376.676 132.881C390.649 132.881 401.829 143.501 401.829 157.335C401.829 171.169 390.649 182.348 376.676 182.348ZM353.619 185.283H399.732C400.431 185.283 401.13 185.981 401.13 186.68V233.353C401.13 234.191 400.431 234.75 399.732 234.75H353.619C352.92 234.75 352.221 234.191 352.221 233.353V186.68C352.221 185.981 352.92 185.283 353.619 185.283ZM460.787 132.881C489.154 132.881 512.071 155.518 512.071 183.885C512.071 212.252 489.154 234.75 460.787 234.75C432.42 234.75 409.503 212.252 409.503 183.885C409.503 155.518 432.42 132.881 460.787 132.881ZM460.787 188.776C463.442 188.776 465.678 186.68 465.678 183.885C465.678 181.23 463.442 178.994 460.787 178.994C458.132 178.994 455.896 181.23 455.896 183.885C455.896 186.68 458.132 188.776 460.787 188.776ZM569.386 183.466V233.492C569.386 234.191 568.687 234.75 567.988 234.75H522.573C521.875 234.75 521.316 234.191 521.316 233.492V134.278C521.316 133.44 521.875 132.881 522.573 132.881H568.268C569.106 132.881 569.665 133.3 569.805 134.138L576.093 183.047C576.093 183.326 576.373 183.326 576.373 183.047V134.278C576.373 133.44 576.932 132.881 577.63 132.881H623.045C623.744 132.881 624.443 133.44 624.443 134.278V233.492C624.443 234.191 623.744 234.75 623.045 234.75H577.211C576.652 234.61 576.233 234.051 576.093 233.492L569.665 183.466C569.665 183.187 569.386 183.187 569.386 183.466Z" fill="#8CD9DA"/>
<path d="M170.33 215.628C166.037 215.628 161.847 215.628 157.35 215.628V222.782C158.577 222.782 159.19 222.782 160.212 222.782C160.212 221.352 160.212 218.694 160.212 218.694C162.051 218.694 167.468 218.694 170.432 218.694C170.33 217.672 170.33 216.65 170.33 215.628Z" fill="black"/>
<path d="M180.549 192.123C179.732 192.123 178.812 192.123 177.483 192.123C177.483 192.123 177.483 197.641 177.483 200.401C177.483 203.058 177.483 205.817 177.483 208.475C178.403 208.475 179.425 208.475 180.549 208.475C180.549 202.854 180.549 197.539 180.549 192.123Z" fill="black"/>
<rect width="36.7919" height="3.27845" transform="matrix(4.37114e-08 -1 -1 -4.37114e-08 208.394 228.915)" fill="black"/>
<rect width="20.0493" height="5.90592" transform="matrix(-1 0 0 1 212.803 202.564)" fill="black"/>
<path d="M160.11 222.783C160.11 223.703 160.11 224.725 160.11 225.849C161.643 225.849 162.971 225.849 164.198 225.849C164.198 224.929 164.198 224.009 164.198 222.783C162.665 222.783 161.336 222.783 160.11 222.783Z" fill="black"/>
<path d="M174.038 222.342C174.038 223.231 174.038 224.247 174.038 225.644C175.996 225.644 178.062 225.644 180.345 225.644C180.345 224.755 180.345 223.612 180.345 222.342C178.17 222.342 176.104 222.342 174.038 222.342Z" fill="black"/>
<path d="M168.157 229.756C168.157 230.645 168.157 231.661 168.157 233.058C170.114 233.058 172.18 233.058 174.463 233.058C174.463 232.169 174.463 231.026 174.463 229.756C172.288 229.756 170.223 229.756 168.157 229.756Z" fill="black"/>
<path d="M163.891 225.849C163.891 226.901 163.891 228.103 163.891 229.756C165.215 229.756 166.612 229.756 168.157 229.756C168.157 228.704 168.157 227.352 168.157 225.849C166.686 225.849 165.288 225.849 163.891 225.849Z" fill="black"/>
<rect width="24.7061" height="9.1504" transform="matrix(-1 0 0 1 220.271 370.262)" fill="#0D0A03"/>
<rect width="25.6211" height="10.9805" transform="matrix(-1 0 0 1 156.219 368.431)" fill="#0D0A03"/>
<path d="M198.075 301.451H200.128V321.973H208.337V334.288H230.912V342.497H235.016V350.706H247.331V342.497H252.803V334.288H261.697V321.973H259.644V309.66H256.908V302.819H263.749V297.346H259.644V293.242H254.172V297.346H253.487V300.766H252.803V278.876H198.075V301.451ZM211.758 264.508H206.285V278.875H237.069V264.508H228.86V258.352H211.758V264.508Z" fill="#824419"/>
<path d="M169.342 264.509H165.238V268.613H169.342V268.614H157.029V272.719H148.82V276.823H140.611V280.928H136.505V285.032H128.296V289.137H124.192V293.242H120.087V301.45H115.983V321.973H120.087V342.497H124.192V354.81H130.597V370.262H142.493V346.601H144.323V362.941H154.388V346.601H157.029V350.706H169.342V354.81H196.023V371.913H208.336V347.97H209.021V365.072H219.282V346.601H222.703V338.392H210.389V326.078H202.179V315.817H198.075V256.3H169.342V264.509ZM200.127 340.444H198.075V338.392H200.127V340.444Z" fill="#A35A27"/>
<rect width="16.4184" height="16.4184" transform="matrix(-1 0 0 1 198.075 256.3)" fill="#D09062"/>
<rect width="16.4184" height="4.10461" transform="matrix(-1 0 0 1 183.709 260.405)" fill="#D09062"/>
<rect width="16.4184" height="4.10461" transform="matrix(-1 0 0 1 181.657 264.509)" fill="#D09062"/>
<rect width="12.3138" height="4.10461" transform="matrix(-1 0 0 1 169.343 268.614)" fill="#D09062"/>
<rect width="8.20922" height="4.10461" transform="matrix(-1 0 0 1 157.029 272.719)" fill="#D09062"/>
<rect width="8.20922" height="4.10461" transform="matrix(-1 0 0 1 148.82 276.823)" fill="#D09062"/>
<rect width="8.20922" height="4.10461" transform="matrix(-1 0 0 1 140.611 280.927)" fill="#D09062"/>
<rect width="10.2615" height="16.4184" transform="matrix(-1 0 0 1 126.244 305.555)" fill="#824418"/>
<rect width="10.2615" height="17.7866" transform="matrix(-1 0 0 1 130.349 316.5)" fill="#824418"/>
<rect width="10.2615" height="20.523" transform="matrix(-1 0 0 1 134.454 321.973)" fill="#824418"/>
<rect width="14.3661" height="12.3138" transform="matrix(-1 0 0 1 148.82 334.287)" fill="#824418"/>
<rect width="12.3138" height="8.20922" transform="matrix(-1 0 0 1 152.924 326.078)" fill="#824418"/>
<rect width="14.3661" height="12.3138" transform="matrix(-1 0 0 1 130.349 297.345)" fill="#824418"/>
<rect width="16.4184" height="8.20922" transform="matrix(-1 0 0 1 185.761 346.601)" fill="#824418"/>
<rect width="12.3138" height="8.20922" transform="matrix(-1 0 0 1 193.97 342.497)" fill="#824418"/>
<rect width="9.57742" height="8.20922" transform="matrix(-1 0 0 1 198.075 334.287)" fill="#824418"/>
<rect width="9.57742" height="8.20922" transform="matrix(-1 0 0 1 211.757 342.497)" fill="#824418"/>
<rect width="16.4707" height="8.23536" transform="matrix(-1 0 0 1 173.604 342.81)" fill="#824418"/>
<rect width="21.0459" height="15.5557" transform="matrix(-1 0 0 1 163.539 334.575)" fill="#824418"/>
<rect width="12.8106" height="16.4707" transform="matrix(-1 0 0 1 140.663 338.235)" fill="#824418"/>
<rect width="10.9805" height="21.961" transform="matrix(-1 0 0 1 154.388 346.47)" fill="#824418"/>
<rect width="24.6276" height="24.6276" transform="matrix(-1 0 0 1 220.65 346.601)" fill="#824418"/>
<path d="M200.811 278.875V265.193L204.574 261.43L209.363 266.561L214.151 276.481L212.441 278.875L209.363 281.953H207.994L200.811 278.875Z" fill="#F5F5F5"/>
<path d="M230.57 271.008L237.411 267.245H241.515L244.594 269.64L248.699 267.929L254.513 266.561L256.908 271.692L262.039 273.744V279.901L256.908 290.505H246.988L241.858 294.267L233.306 295.978L228.518 290.505L225.097 288.11V273.744L230.57 271.008Z" fill="white"/>
<rect width="4.10461" height="12.3138" transform="matrix(-1 0 0 1 247.33 256.3)" fill="#F5F5F5"/>
<rect width="4.10461" height="4.78871" transform="matrix(-1 0 0 1 226.807 332.235)" fill="#824419"/>
<rect width="10.9805" height="15.5557" transform="matrix(-1 0 0 1 141.578 352.876)" fill="#824418"/>
<rect width="4.10461" height="20.523" transform="matrix(-1 0 0 1 202.18 256.3)" fill="black"/>
<rect width="4.10461" height="8.20922" transform="matrix(-1 0 0 1 206.284 252.195)" fill="black"/>
<rect width="4.10461" height="4.10461" transform="matrix(-1 0 0 1 206.284 276.823)" fill="black"/>
<rect width="4.10461" height="4.10461" transform="matrix(-1 0 0 1 214.493 268.614)" fill="black"/>
<rect width="4.10461" height="4.10461" transform="matrix(-1 0 0 1 222.702 256.3)" fill="black"/>
<rect width="4.10461" height="4.10461" transform="matrix(-1 0 0 1 235.016 260.405)" fill="black"/>
<rect width="4.10461" height="4.10461" transform="matrix(-1 0 0 1 239.121 260.405)" fill="black"/>
<rect width="4.10461" height="4.10461" transform="matrix(-1 0 0 1 243.226 260.405)" fill="black"/>
<rect width="4.10461" height="4.10461" transform="matrix(-1 0 0 1 255.539 264.509)" fill="black"/>
<rect width="4.10461" height="4.10461" transform="matrix(-1 0 0 1 259.644 268.614)" fill="black"/>
<rect width="4.10461" height="4.10461" transform="matrix(-1 0 0 1 255.539 276.823)" fill="black"/>
<rect width="4.10461" height="4.10461" transform="matrix(-1 0 0 1 239.121 278.875)" fill="black"/>
<rect width="4.10461" height="16.4184" transform="matrix(-1 0 0 1 226.807 272.719)" fill="black"/>
<rect width="4.10461" height="8.20922" transform="matrix(-1 0 0 1 259.644 285.032)" fill="black"/>
<rect width="4.10461" height="8.20922" transform="matrix(-1 0 0 1 255.539 289.137)" fill="black"/>
<rect width="4.10461" height="4.10461" transform="matrix(-1 0 0 1 263.749 293.242)" fill="black"/>
<rect width="8.20922" height="4.10461" transform="matrix(-1 0 0 1 263.749 330.183)" fill="black"/>
<rect width="16.4184" height="4.10461" transform="matrix(-1 0 0 1 259.644 334.288)" fill="black"/>
<rect width="4.10461" height="4.10461" transform="matrix(-1 0 0 1 263.749 301.451)" fill="black"/>
<rect width="4.10461" height="8.20922" transform="matrix(-1 0 0 1 259.644 301.451)" fill="black"/>
<rect width="4.10461" height="8.20922" transform="matrix(-1 0 0 1 265.801 321.974)" fill="black"/>
<rect width="4.10461" height="12.3138" transform="matrix(-1 0 0 1 263.749 309.66)" fill="black"/>
<rect width="4.10461" height="4.10461" transform="matrix(-1 0 0 1 255.539 297.346)" fill="black"/>
<rect width="4.10461" height="4.10461" transform="matrix(-1 0 0 1 251.435 289.137)" fill="black"/>
<rect width="4.10461" height="8.20922" transform="matrix(-1 0 0 1 267.853 297.346)" fill="black"/>
<rect width="4.10461" height="12.3138" transform="matrix(-1 0 0 1 263.749 272.719)" fill="black"/>
<rect width="4.10461" height="8.20922" transform="matrix(-1 0 0 1 251.435 272.719)" fill="black"/>
<rect width="4.10461" height="8.20922" transform="matrix(-1 0 0 1 252.803 280.927)" fill="black"/>
<rect width="4.10461" height="4.10461" transform="matrix(-1 0 0 1 243.226 256.3)" fill="black"/>
<rect width="4.10461" height="16.4184" transform="matrix(-1 0 0 1 251.435 252.195)" fill="black"/>
<rect width="4.10461" height="12.3138" transform="matrix(-1 0 0 1 247.33 243.986)" fill="black"/>
<rect width="4.10461" height="4.10461" transform="matrix(-1 0 0 1 239.121 264.509)" fill="black"/>
<rect width="8.20922" height="4.10461" transform="matrix(-1 0 0 1 235.016 268.614)" fill="black"/>
<rect width="4.10461" height="4.10461" transform="matrix(-1 0 0 1 230.912 289.137)" fill="black"/>
<rect width="4.10461" height="4.10461" transform="matrix(-1 0 0 1 247.33 289.137)" fill="black"/>
<rect width="12.3138" height="4.10461" transform="matrix(-1 0 0 1 243.226 293.242)" fill="black"/>
<rect width="12.3138" height="4.10461" transform="matrix(-1 0 0 1 247.33 350.706)" fill="black"/>
<rect width="4.10461" height="4.10461" transform="matrix(-1 0 0 1 247.33 268.614)" fill="black"/>
<rect width="4.10461" height="4.10461" transform="matrix(-1 0 0 1 243.226 264.509)" fill="black"/>
<rect width="4.10461" height="4.10461" transform="matrix(-1 0 0 1 226.807 256.3)" fill="black"/>
<rect width="4.10461" height="8.20922" transform="matrix(-1 0 0 1 230.912 256.3)" fill="black"/>
<rect width="4.10461" height="4.10461" transform="matrix(-1 0 0 1 210.389 264.509)" fill="black"/>
<rect width="4.10461" height="4.10461" transform="matrix(-1 0 0 1 206.284 260.405)" fill="black"/>
<rect width="4.10461" height="4.10461" transform="matrix(-1 0 0 1 210.389 280.927)" fill="black"/>
<rect width="4.10461" height="4.10461" transform="matrix(-1 0 0 1 214.493 285.032)" fill="black"/>
<rect width="4.10461" height="4.10461" transform="matrix(-1 0 0 1 218.598 293.242)" fill="black"/>
<rect width="4.10461" height="6.84101" transform="matrix(-1 0 0 1 214.493 297.346)" fill="black"/>
<rect width="4.10461" height="15.0502" transform="matrix(-1 0 0 1 210.389 289.137)" fill="black"/>
<rect width="4.10461" height="8.20922" transform="matrix(-1 0 0 1 214.493 272.719)" fill="black"/>
<rect width="4.10461" height="4.10461" transform="matrix(-1 0 0 1 210.389 260.405)" fill="black"/>
<rect width="4.10461" height="8.20922" transform="matrix(-1 0 0 1 214.493 256.3)" fill="black"/>
<rect width="4.10461" height="8.20922" transform="matrix(-1 0 0 1 218.598 256.3)" fill="black"/>
<rect width="16.4184" height="4.10461" transform="matrix(-1 0 0 1 198.075 252.195)" fill="black"/>
<rect width="12.3138" height="4.10461" transform="matrix(-1 0 0 1 181.656 256.3)" fill="black"/>
<rect width="4.10461" height="4.10461" transform="matrix(-1 0 0 1 169.343 260.405)" fill="black"/>
<rect width="4.10461" height="4.10461" transform="matrix(-1 0 0 1 140.61 276.823)" fill="black"/>
<rect width="4.10461" height="4.10461" transform="matrix(-1 0 0 1 128.297 285.032)" fill="black"/>
<rect width="4.10461" height="4.10461" transform="matrix(-1 0 0 1 124.192 289.137)" fill="black"/>
<rect width="4.10461" height="4.10461" transform="matrix(-1 0 0 1 120.087 293.242)" fill="black"/>
<rect width="4.10461" height="4.10461" transform="matrix(-1 0 0 1 120.087 297.346)" fill="black"/>
<rect width="4.10461" height="8.20922" transform="matrix(-1 0 0 1 107.773 305.556)" fill="black"/>
<rect width="8.20922" height="4.10461" transform="matrix(-1 0 0 1 165.238 264.509)" fill="black"/>
<rect width="8.20922" height="4.10461" transform="matrix(-1 0 0 1 157.029 268.614)" fill="black"/>
<rect width="8.20922" height="4.10461" transform="matrix(-1 0 0 1 148.82 272.719)" fill="black"/>
<rect width="8.20922" height="4.10461" transform="matrix(-1 0 0 1 136.506 280.927)" fill="black"/>
<rect width="4.10461" height="4.10461" transform="matrix(-1 0 0 1 111.878 301.451)" fill="black"/>
<rect width="4.10461" height="20.523" transform="matrix(-1 0 0 1 115.983 301.451)" fill="black"/>
<rect width="4.10461" height="12.3138" transform="matrix(-1 0 0 1 120.087 321.974)" fill="black"/>
<rect width="4.10461" height="12.3138" transform="matrix(-1 0 0 1 103.669 313.764)" fill="black"/>
<rect width="4.10461" height="8.20922" transform="matrix(-1 0 0 1 107.773 326.078)" fill="black"/>
<rect width="4.10461" height="8.20922" transform="matrix(-1 0 0 1 124.192 334.288)" fill="black"/>
<rect width="4.10461" height="12.3138" transform="matrix(-1 0 0 1 128.297 342.497)" fill="black"/>
<rect width="4.5752" height="26.5362" transform="matrix(-1 0 0 1 132.427 354.706)" fill="black"/>
<rect width="3.66016" height="24.7061" transform="matrix(-1 0 0 1 144.323 346.47)" fill="black"/>
<rect width="4.10461" height="12.3138" transform="matrix(-1 0 0 1 154.388 350.706)" fill="black"/>
<rect width="3.66016" height="10.0654" transform="matrix(-1 0 0 1 147.983 368.432)" fill="black"/>
<rect width="3.66016" height="18.3008" transform="matrix(-1 0 0 1 158.048 362.941)" fill="black"/>
<rect width="25.6211" height="3.66016" transform="matrix(-1 0 0 1 157.133 367.516)" fill="black"/>
<rect width="27.4512" height="3.66016" transform="matrix(-1 0 0 1 158.048 377.582)" fill="black"/>
<rect width="4.10461" height="8.20922" transform="matrix(-1 0 0 1 148.82 338.392)" fill="black"/>
<rect width="4.10461" height="4.10461" transform="matrix(-1 0 0 1 152.924 334.288)" fill="black"/>
<rect width="4.10461" height="4.10461" transform="matrix(-1 0 0 1 152.924 342.497)" fill="black"/>
<rect width="4.5752" height="34.7715" transform="matrix(-1 0 0 1 198.31 346.47)" fill="black"/>
<rect width="3.66016" height="21.961" transform="matrix(-1 0 0 1 210.206 346.47)" fill="black"/>
<rect width="4.5752" height="31.1114" transform="matrix(-1 0 0 1 223.016 346.47)" fill="black"/>
<rect width="4.10461" height="4.10461" transform="matrix(-1 0 0 1 198.075 342.497)" fill="black"/>
<rect width="4.10461" height="4.10461" transform="matrix(-1 0 0 1 202.18 338.392)" fill="black"/>
<rect width="4.10461" height="4.10461" transform="matrix(-1 0 0 1 218.598 334.288)" fill="black"/>
<rect width="4.10461" height="8.20922" transform="matrix(-1 0 0 1 214.493 330.183)" fill="black"/>
<rect width="4.10461" height="8.20922" transform="matrix(-1 0 0 1 198.075 289.137)" fill="black"/>
<rect width="4.10461" height="12.3138" transform="matrix(-1 0 0 1 202.18 276.823)" fill="black"/>
<rect width="4.10461" height="12.3138" transform="matrix(-1 0 0 1 210.389 321.974)" fill="black"/>
<rect width="4.10461" height="12.3138" transform="matrix(-1 0 0 1 206.284 313.764)" fill="black"/>
<rect width="4.10461" height="20.523" transform="matrix(-1 0 0 1 202.18 297.346)" fill="black"/>
<rect width="4.10461" height="4.10461" transform="matrix(-1 0 0 1 157.029 346.601)" fill="black"/>
<rect width="12.3138" height="4.10461" transform="matrix(-1 0 0 1 169.343 350.706)" fill="black"/>
<rect width="6.931" height="4.20801" transform="matrix(-1 0 0 1 109.02 380.713)" fill="black"/>
<rect width="8.20922" height="4.10461" transform="matrix(-1 0 0 1 193.97 350.706)" fill="black"/>
<rect width="25.6211" height="4.5752" transform="matrix(-1 0 0 1 223.016 367.516)" fill="black"/>
<rect width="24.7061" height="3.66016" transform="matrix(-1 0 0 1 223.016 377.582)" fill="black"/>
<rect width="16.4184" height="4.10461" transform="matrix(-1 0 0 1 185.761 354.811)" fill="black"/>
<rect width="119.878" height="3.74566" transform="matrix(-1 0 0 1 240.885 381.175)" fill="black"/>
<rect width="4.10461" height="8.20922" transform="matrix(-1 0 0 1 157.029 326.078)" fill="black"/>
<rect width="3.66016" height="12.8106" transform="matrix(-1 0 0 1 213.866 368.432)" fill="black"/>
<rect width="4.10461" height="8.20922" transform="matrix(-1 0 0 1 213.866 342.81)" fill="black"/>
<rect width="4.10461" height="9.57742" transform="matrix(-1 0 0 1 226.807 337.024)" fill="black"/>
<rect width="4.10461" height="6.15691" transform="matrix(-1 0 0 1 222.702 332.235)" fill="black"/>
<rect width="4.10461" height="4.10461" transform="matrix(-1 0 0 1 243.226 330.183)" fill="black"/>
<rect width="4.10461" height="4.10461" transform="matrix(-1 0 0 1 255.539 338.392)" fill="black"/>
<rect width="4.10461" height="8.20922" transform="matrix(-1 0 0 1 251.435 342.497)" fill="black"/>
<rect width="4.10461" height="4.10461" transform="matrix(-1 0 0 1 239.121 346.601)" fill="black"/>
<rect width="4.10461" height="8.20922" transform="matrix(-1 0 0 1 235.016 342.497)" fill="black"/>
<rect width="4.10461" height="10.2615" transform="matrix(-1 0 0 1 230.912 332.235)" fill="black"/>
<path d="M111.367 229.101L114.48 224.61L115.518 225.301L118.632 228.065L122.783 230.138L122.437 223.919L127.626 221.155H134.546L135.583 237.048L139.043 241.195L142.849 237.048L145.616 232.557L146.308 229.101L149.768 224.61L154.265 228.065V236.357L150.805 239.812L146.308 243.959V251.56L149.768 255.361L150.805 278.51L154.265 280.583L155.303 288.53L157.379 291.64L158.762 302.351L154.265 307.879L150.805 311.334H134.2L131.432 307.879L130.394 301.314L127.281 299.932L122.783 296.132L119.324 299.241V302.351L115.172 307.879V331.029L111.367 332.756V342.085L108.253 346.577L106.869 375.601L99.6041 376.637V343.467L95.7986 342.085L91.9931 346.577L90.6093 374.91L83.6902 375.601L82.9983 343.467H63.2788L59.1274 344.85V350.723L55.6678 351.414L56.3597 357.634L52.5542 362.125L51.1704 377.328H43.2134V356.252L40.0998 355.561L35.6024 359.016L32.4888 363.162L31.7969 377.328H24.5318L23.494 359.707L27.9914 355.561V350.723L32.8348 347.614V295.786L34.9105 291.985L40.0998 288.53L43.2134 284.039H63.6248L66.3924 287.494H84.0361V280.583L86.1119 276.437L88.1876 271.6L90.2633 269.181L91.3012 264.344L94.0688 261.234L95.7986 258.125L98.9122 255.361L99.6041 248.45L102.026 245.686L105.485 244.65L106.523 239.812L111.367 237.048V229.101Z" fill="white"/>
<rect width="4.304" height="11.6823" transform="matrix(-1 0 0 1 129.249 222.999)" fill="#DADADA"/>
<rect width="4.304" height="11.6823" transform="matrix(-1 0 0 1 152.474 226.556)" fill="#FFD7D4"/>
<rect width="4.304" height="11.6823" transform="matrix(-1 0 0 1 117.434 226.588)" fill="#FFD7D4"/>
<rect width="3.91491" height="7.83057" transform="matrix(-1 0 0 1 148.364 234.355)" fill="#DADADA"/>
<rect width="3.91491" height="11.745" transform="matrix(-1 0 0 1 120.96 230.44)" fill="#DADADA"/>
<rect width="3.91491" height="11.745" transform="matrix(-1 0 0 1 113.13 238.239)" fill="#DADADA"/>
<rect width="3.91491" height="11.745" transform="matrix(-1 0 0 1 105.299 246.1)" fill="#DADADA"/>
<rect width="3.91491" height="11.745" transform="matrix(-1 0 0 1 109.215 250.015)" fill="#DADADA"/>
<rect width="3.91491" height="3.91506" transform="matrix(-1 0 0 1 117.008 242.185)" fill="#DADADA"/>
<rect width="3.91491" height="11.745" transform="matrix(-1 0 0 1 101.385 257.845)" fill="#DADADA"/>
<rect width="3.91491" height="7.83012" transform="matrix(-1 0 0 1 93.5548 269.59)" fill="#DADADA"/>
<rect width="3.91491" height="7.83012" transform="matrix(-1 0 0 1 97.4696 258.533)" fill="#DADADA"/>
<rect width="3.91491" height="7.83012" transform="matrix(-1 0 0 1 89.6399 275.463)" fill="#DADADA"/>
<rect width="3.68914" height="7.99314" transform="matrix(4.37114e-08 1 1 -4.37114e-08 124.945 230.992)" fill="#BABABA"/>
<path d="M157.533 291.313L154.099 288.174H137.618L134.871 292.707L131.094 294.8V307.005L133.154 310.492L151.009 311.539L154.443 307.703L156.846 304.913L157.533 291.313Z" fill="#FFD7D5"/>
<rect width="20.0268" height="3.51816" transform="matrix(-1 0 0 1 152.731 306.004)" fill="#FFB8B3"/>
<rect width="3.91506" height="22.1171" transform="matrix(-1 0 0 1 113.13 307.764)" fill="#D9D9D9"/>
<rect width="3.91506" height="15.6601" transform="matrix(-1 0 0 1 109.215 329.88)" fill="#D9D9D9"/>
<rect width="3.91506" height="7.82997" transform="matrix(-1 0 0 1 117.045 297.778)" fill="#D9D9D9"/>
<rect width="3.91506" height="7.82997" transform="matrix(-1 0 0 1 128.753 289.948)" fill="#D9D9D9"/>
<rect width="3.91506" height="7.82997" transform="matrix(-1 0 0 1 124.838 286.033)" fill="#D9D9D9"/>
<rect width="3.91506" height="7.82997" transform="matrix(-1 0 0 1 120.923 282.118)" fill="#D9D9D9"/>
<rect width="3.91506" height="3.91536" transform="matrix(-1 0 0 1 132.668 289.948)" fill="#D9D9D9"/>
<rect width="3.91491" height="13.367" transform="matrix(-1 0 0 1 105.3 361.2)" fill="#FFD7D5"/>
<rect width="3.91491" height="13.367" transform="matrix(-1 0 0 1 89.6396 361.2)" fill="#FFD7D5"/>
<rect width="3.91491" height="13.367" transform="matrix(-1 0 0 1 49.707 361.2)" fill="#FFD7D5"/>
<rect width="3.91491" height="13.367" transform="matrix(-1 0 0 1 30.1322 361.2)" fill="#FFD7D5"/>
<rect width="11.745" height="7.82997" transform="matrix(-1 0 0 1 57.5371 341.626)" fill="#C2C2C2"/>
<rect width="7.82989" height="11.745" transform="matrix(-1 0 0 1 53.6218 349.456)" fill="#C2C2C2"/>
<rect width="36.0178" height="3.91476" transform="matrix(-1 0 0 1 81.8099 337.711)" fill="#C2C2C2"/>
<rect width="32.1029" height="3.91491" transform="matrix(-1 0 0 1 81.81 333.795)" fill="#D9D9D9"/>
<rect width="3.91499" height="11.745" transform="matrix(-1 0 0 1 132.705 242.185)" fill="black"/>
<rect width="3.91499" height="11.745" transform="matrix(-1 0 0 1 148.365 242.185)" fill="black"/>
<rect width="3.91499" height="11.745" transform="matrix(-1 0 0 1 156.195 226.525)" fill="black"/>
<rect width="3.91499" height="11.745" transform="matrix(-1 0 0 1 113.13 226.525)" fill="black"/>
<rect width="3.91499" height="11.745" transform="matrix(-1 0 0 1 124.875 222.61)" fill="black"/>
<rect width="3.91499" height="19.575" transform="matrix(-1 0 0 1 136.62 218.695)" fill="black"/>
<rect width="3.91499" height="15.66" transform="matrix(-1 0 0 1 140.535 238.27)" fill="black"/>
<rect width="11.7572" height="4.14961" transform="matrix(-1 0 0 1 136.595 218.695)" fill="black"/>
<rect width="11.745" height="3.91499" transform="matrix(-1 0 0 1 132.705 234.355)" fill="black"/>
<rect width="3.91499" height="3.91499" transform="matrix(-1 0 0 1 128.79 238.27)" fill="black"/>
<rect width="3.91499" height="3.91499" transform="matrix(-1 0 0 1 120.96 226.525)" fill="black"/>
<rect width="3.91499" height="3.91499" transform="matrix(-1 0 0 1 117.045 222.61)" fill="black"/>
<rect width="3.91499" height="3.91499" transform="matrix(-1 0 0 1 120.96 242.185)" fill="black"/>
<rect width="3.91499" height="7.82998" transform="matrix(-1 0 0 1 117.045 246.1)" fill="black"/>
<rect width="3.91499" height="7.82998" transform="matrix(-1 0 0 1 144.45 234.355)" fill="black"/>
<rect width="3.91499" height="7.82998" transform="matrix(-1 0 0 1 148.365 226.525)" fill="black"/>
<rect width="3.91499" height="11.745" transform="matrix(-1 0 0 1 113.13 250.015)" fill="black"/>
<rect width="3.91499" height="11.745" transform="matrix(-1 0 0 1 101.385 246.1)" fill="black"/>
<rect width="3.91499" height="7.82998" transform="matrix(-1 0 0 1 97.4697 253.93)" fill="black"/>
<rect width="3.91499" height="7.82998" transform="matrix(-1 0 0 1 93.5547 261.76)" fill="black"/>
<rect width="3.91499" height="7.82998" transform="matrix(-1 0 0 1 120.96 297.778)" fill="black"/>
<rect width="3.91499" height="15.66" transform="matrix(-1 0 0 1 132.705 293.863)" fill="black"/>
<rect width="3.91499" height="15.66" transform="matrix(-1 0 0 1 160.11 289.948)" fill="black"/>
<rect width="3.91499" height="11.745" transform="matrix(-1 0 0 1 117.045 278.203)" fill="black"/>
<rect width="3.91499" height="7.82998" transform="matrix(-1 0 0 1 89.6396 269.59)" fill="black"/>
<rect width="3.91499" height="11.745" transform="matrix(-1 0 0 1 105.3 257.845)" fill="black"/>
<rect width="3.91499" height="11.745" transform="matrix(-1 0 0 1 97.4697 265.675)" fill="black"/>
<rect width="3.91499" height="11.745" transform="matrix(-1 0 0 1 85.7249 277.42)" fill="black"/>
<rect width="3.91499" height="23.4899" transform="matrix(-1 0 0 1 81.81 286.033)" fill="black"/>
<rect width="3.91499" height="19.575" transform="matrix(-1 0 0 1 69.282 293.862)" fill="black"/>
<rect width="3.91499" height="11.745" transform="matrix(-1 0 0 1 69.282 322.051)" fill="black"/>
<rect width="3.91499" height="11.745" transform="matrix(-1 0 0 1 57.5371 322.051)" fill="black"/>
<rect width="3.91499" height="11.745" transform="matrix(-1 0 0 1 81.81 317.352)" fill="black"/>
<rect width="3.91499" height="11.745" transform="matrix(-1 0 0 1 113.13 333.795)" fill="black"/>
<rect width="3.91499" height="25.056" transform="matrix(-1 0 0 1 117.045 308.74)" fill="black"/>
<rect width="3.91499" height="23.4899" transform="matrix(-1 0 0 1 57.5371 289.948)" fill="black"/>
<rect width="3.91499" height="23.4899" transform="matrix(-1 0 0 1 45.7921 289.948)" fill="black"/>
<rect width="3.91499" height="55.5929" transform="matrix(-1 0 0 1 34.0471 293.862)" fill="black"/>
<rect width="3.91499" height="3.91499" transform="matrix(-1 0 0 1 117.045 238.27)" fill="black"/>
<rect width="3.91499" height="3.91499" transform="matrix(-1 0 0 1 152.279 222.61)" fill="black"/>
<rect width="3.91499" height="3.91499" transform="matrix(-1 0 0 1 152.279 238.27)" fill="black"/>
<rect width="3.91499" height="3.91499" transform="matrix(-1 0 0 1 109.215 261.76)" fill="black"/>
<rect width="3.91499" height="3.91499" transform="matrix(-1 0 0 1 101.385 269.59)" fill="black"/>
<rect width="3.91499" height="3.91499" transform="matrix(-1 0 0 1 105.3 273.505)" fill="black"/>
<rect width="3.91499" height="3.91499" transform="matrix(-1 0 0 1 109.215 277.42)" fill="black"/>
<rect width="3.8609" height="3.91499" transform="matrix(-1 0 0 1 124.821 270.373)" fill="black"/>
<rect width="3.91499" height="3.91499" transform="matrix(-1 0 0 1 124.875 293.863)" fill="black"/>
<rect width="3.91499" height="3.91499" transform="matrix(-1 0 0 1 128.79 297.778)" fill="black"/>
<rect width="3.91499" height="3.91499" transform="matrix(-1 0 0 1 136.62 289.948)" fill="black"/>
<rect width="3.91499" height="3.91499" transform="matrix(-1 0 0 1 145.233 297.778)" fill="black"/>
<rect width="3.91499" height="3.91499" transform="matrix(-1 0 0 1 153.062 297.778)" fill="black"/>
<rect width="3.91499" height="3.91499" transform="matrix(-1 0 0 1 156.195 305.608)" fill="black"/>
<rect width="3.91499" height="3.91499" transform="matrix(-1 0 0 1 120.96 289.948)" fill="black"/>
<rect width="3.91499" height="7.82998" transform="matrix(-1 0 0 1 124.875 282.118)" fill="black"/>
<rect width="3.91499" height="7.82998" transform="matrix(-1 0 0 1 156.195 278.203)" fill="black"/>
<rect width="3.91499" height="28.6063" transform="matrix(-1 0 0 1 152.279 253.512)" fill="black"/>
<rect width="3.91499" height="3.91499" transform="matrix(-1 0 0 1 93.5547 277.42)" fill="black"/>
<rect width="3.91499" height="3.91499" transform="matrix(-1 0 0 1 85.7249 309.523)" fill="black"/>
<rect width="3.91499" height="3.91499" transform="matrix(-1 0 0 1 73.197 313.438)" fill="black"/>
<rect width="3.91499" height="3.91499" transform="matrix(-1 0 0 1 73.197 333.795)" fill="black"/>
<rect width="3.91499" height="3.91499" transform="matrix(-1 0 0 1 61.4519 333.795)" fill="black"/>
<rect width="3.91499" height="3.91499" transform="matrix(-1 0 0 1 73.197 289.948)" fill="black"/>
<rect width="3.91499" height="3.91499" transform="matrix(-1 0 0 1 85.7249 329.098)" fill="black"/>
<rect width="3.91499" height="3.91499" transform="matrix(-1 0 0 1 93.5549 325.966)" fill="black"/>
<rect width="3.91499" height="3.91499" transform="matrix(-1 0 0 1 97.4697 313.438)" fill="black"/>
<rect width="3.91499" height="3.91499" transform="matrix(-1 0 0 1 61.4521 286.033)" fill="black"/>
<rect width="3.91499" height="3.91499" transform="matrix(-1 0 0 1 61.4521 313.438)" fill="black"/>
<rect width="3.91499" height="3.91499" transform="matrix(-1 0 0 1 89.6396 289.165)" fill="black"/>
<rect width="3.91499" height="3.91499" transform="matrix(-1 0 0 1 37.9622 317.352)" fill="black"/>
<rect width="3.91499" height="3.91499" transform="matrix(-1 0 0 1 49.707 286.033)" fill="black"/>
<rect width="3.91499" height="3.91499" transform="matrix(-1 0 0 1 41.877 286.033)" fill="black"/>
<rect width="3.91499" height="3.91499" transform="matrix(-1 0 0 1 37.9622 289.948)" fill="black"/>
<rect width="3.91499" height="3.91499" transform="matrix(-1 0 0 1 30.1322 293.862)" fill="black"/>
<rect width="3.91499" height="7.82998" transform="matrix(-1 0 0 1 26.2172 297.778)" fill="black"/>
<rect width="3.91499" height="7.82998" transform="matrix(-1 0 0 1 30.1322 349.456)" fill="black"/>
<rect width="3.91499" height="7.82998" transform="matrix(-1 0 0 1 45.7921 349.456)" fill="black"/>
<rect width="3.91499" height="7.82998" transform="matrix(-1 0 0 1 57.5371 353.371)" fill="black"/>
<rect width="3.91499" height="7.82998" transform="matrix(-1 0 0 1 22.3021 305.608)" fill="black"/>
<rect width="3.91499" height="11.745" transform="matrix(-1 0 0 1 26.2172 313.438)" fill="black"/>
<rect width="3.91499" height="23.4899" transform="matrix(-1 0 0 1 26.2172 357.285)" fill="black"/>
<rect width="3.91499" height="19.575" transform="matrix(-1 0 0 1 34.0471 361.2)" fill="black"/>
<rect width="3.91499" height="23.4899" transform="matrix(-1 0 0 1 45.7921 357.285)" fill="black"/>
<rect width="3.91499" height="19.575" transform="matrix(-1 0 0 1 53.6218 361.2)" fill="black"/>
<rect width="3.91499" height="43.0651" transform="matrix(-1 0 0 1 85.7249 337.711)" fill="black"/>
<rect width="3.91499" height="36.0179" transform="matrix(-1 0 0 1 93.5549 344.758)" fill="black"/>
<rect width="3.91499" height="43.8479" transform="matrix(-1 0 0 1 101.385 336.928)" fill="black"/>
<rect width="3.91499" height="35.2349" transform="matrix(-1 0 0 1 109.215 345.54)" fill="black"/>
<rect width="3.91499" height="3.91499" transform="matrix(-1 0 0 1 49.707 313.438)" fill="black"/>
<rect width="3.91499" height="3.91499" transform="matrix(-1 0 0 1 97.4697 281.335)" fill="black"/>
<rect width="3.91499" height="3.91499" transform="matrix(-1 0 0 1 101.385 285.25)" fill="black"/>
<rect width="3.91499" height="3.91499" transform="matrix(-1 0 0 1 89.6396 281.335)" fill="black"/>
<rect width="12.528" height="3.91499" transform="matrix(-1 0 0 1 77.8949 286.033)" fill="black"/>
<rect width="3.91499" height="3.91499" transform="matrix(-1 0 0 1 93.5547 293.08)" fill="black"/>
<rect width="3.91499" height="3.91499" transform="matrix(-1 0 0 1 97.4697 296.995)" fill="black"/>
<rect width="23.4899" height="3.91499" transform="matrix(-1 0 0 1 65.3671 282.118)" fill="black"/>
<rect width="3.91499" height="3.91499" transform="matrix(-1 0 0 1 41.877 321.267)" fill="black"/>
<rect width="3.91499" height="3.91499" transform="matrix(-1 0 0 1 45.7921 325.182)" fill="black"/>
<rect width="3.91499" height="3.91499" transform="matrix(-1 0 0 1 45.7921 333.795)" fill="black"/>
<rect width="3.91499" height="3.91499" transform="matrix(-1 0 0 1 97.4697 340.843)" fill="black"/>
<rect width="3.91499" height="3.91499" transform="matrix(-1 0 0 1 89.6398 348.672)" fill="black"/>
<rect width="3.91499" height="3.91499" transform="matrix(-1 0 0 1 89.6398 357.285)" fill="black"/>
<rect width="3.91499" height="3.91499" transform="matrix(-1 0 0 1 105.3 348.672)" fill="black"/>
<rect width="3.91499" height="3.91499" transform="matrix(-1 0 0 1 105.3 357.285)" fill="black"/>
<rect width="3.91499" height="3.91499" transform="matrix(-1 0 0 1 49.707 337.711)" fill="black"/>
<rect width="3.91499" height="3.91499" transform="matrix(-1 0 0 1 34.0471 353.371)" fill="black"/>
<rect width="11.745" height="3.91499" transform="matrix(-1 0 0 1 61.4521 349.456)" fill="black"/>
<rect width="11.745" height="3.91499" transform="matrix(-1 0 0 1 49.707 345.54)" fill="black"/>
<rect width="23.4899" height="3.91499" transform="matrix(-1 0 0 1 117.045 329.881)" fill="black"/>
<rect width="32.8859" height="3.91499" transform="matrix(-1 0 0 1 82.5929 341.626)" fill="black"/>
<rect width="105.206" height="4.20825" transform="matrix(-1 0 0 1 119.139 380.713)" fill="black"/>
<rect width="19.575" height="3.91499" transform="matrix(-1 0 0 1 117.045 317.352)" fill="black"/>
<rect width="15.66" height="3.91499" transform="matrix(-1 0 0 1 117.045 305.608)" fill="black"/>
<rect width="20.358" height="3.91499" transform="matrix(-1 0 0 1 153.063 309.523)" fill="black"/>
<rect width="19.575" height="3.91499" transform="matrix(-1 0 0 1 156.195 286.033)" fill="black"/>
<rect width="3.91499" height="3.91499" transform="matrix(-1 0 0 1 41.877 353.371)" fill="black"/>
<rect width="9.39598" height="7.82998" transform="matrix(-1 0 0 1 34.0471 372.946)" fill="black"/>
<rect width="3.91499" height="3.91499" transform="matrix(-1 0 0 1 37.9622 357.285)" fill="black"/>
<rect width="3.91499" height="3.91499" transform="matrix(-1 0 0 1 49.707 357.285)" fill="black"/>
<rect width="9.39598" height="7.82998" transform="matrix(-1 0 0 1 53.6218 372.946)" fill="black"/>
<rect width="3.91499" height="3.91499" transform="matrix(-1 0 0 1 61.4521 345.54)" fill="black"/>
<rect width="3.91499" height="3.91499" transform="matrix(-1 0 0 1 105.3 289.165)" fill="black"/>
<rect width="9.39598" height="7.82998" transform="matrix(-1 0 0 1 93.5549 372.946)" fill="black"/>
<rect width="3.91499" height="3.91499" transform="matrix(-1 0 0 1 105.3 242.185)" fill="black"/>
<rect width="3.91499" height="15.66" transform="matrix(-1 0 0 1 109.215 238.27)" fill="black"/>
<rect width="9.39598" height="7.82998" transform="matrix(-1 0 0 1 109.215 372.946)" fill="black"/>
<path d="M123.031 255.733L129.556 252.243H133.471L136.407 254.464L140.322 252.877L145.868 251.608L148.152 256.367L153.046 258.271V263.981L148.152 273.816H138.691L133.797 277.305L125.641 278.892L121.073 273.816L117.811 271.595V258.271L123.031 255.733Z" fill="white"/>
<rect width="8.79703" height="3.80698" transform="matrix(-1 0 0 1 146.847 249.705)" fill="black"/>
<rect width="3.915" height="3.80698" transform="matrix(-1 0 0 1 150.762 253.512)" fill="black"/>
<rect width="3.915" height="3.80698" transform="matrix(-1 0 0 1 146.847 261.126)" fill="black"/>
<rect width="3.915" height="3.80698" transform="matrix(-1 0 0 1 131.187 263.029)" fill="black"/>
<rect width="3.915" height="15.2279" transform="matrix(-1 0 0 1 119.442 257.318)" fill="black"/>
<rect width="3.915" height="7.61395" transform="matrix(-1 0 0 1 150.762 268.739)" fill="black"/>
<rect width="3.915" height="3.80694" transform="matrix(-1 0 0 1 146.847 272.547)" fill="black"/>
<rect width="3.915" height="3.80698" transform="matrix(-1 0 0 1 142.932 272.547)" fill="black"/>
<rect width="3.915" height="11.4209" transform="matrix(-1 0 0 1 154.677 257.318)" fill="black"/>
<rect width="3.915" height="7.61395" transform="matrix(-1 0 0 1 142.932 257.318)" fill="black"/>
<rect width="3.915" height="7.61395" transform="matrix(-1 0 0 1 144.237 264.933)" fill="black"/>
<rect width="4.13729" height="3.80698" transform="matrix(-1 0 0 1 131.187 249.705)" fill="black"/>
<rect width="7.83" height="3.80698" transform="matrix(-1 0 0 1 127.272 253.512)" fill="black"/>
<rect width="3.915" height="3.80698" transform="matrix(-1 0 0 1 123.357 272.547)" fill="black"/>
<rect width="3.915" height="3.80698" transform="matrix(-1 0 0 1 139.017 272.547)" fill="black"/>
<rect width="11.745" height="3.80698" transform="matrix(-1 0 0 1 135.102 276.354)" fill="black"/>
<rect width="3.915" height="3.80698" transform="matrix(-1 0 0 1 139.017 253.512)" fill="black"/>
<rect width="3.915" height="3.80698" transform="matrix(-1 0 0 1 135.102 249.705)" fill="black"/>
<rect width="3.65769" height="3.65769" transform="matrix(-1 0 0 1 177.696 208.47)" fill="black"/>
<rect width="3.27041" height="3.27041" transform="matrix(-1 0 0 1 200.989 195.157)" fill="black"/>
<rect width="4.16255" height="4.16255" transform="matrix(-1 0 0 1 205.031 188.087)" fill="black"/>
<rect width="4.16255" height="4.16255" transform="matrix(-1 0 0 1 184.638 187.961)" fill="black"/>
<rect width="3.27041" height="3.27041" transform="matrix(-1 0 0 1 194.449 195.157)" fill="black"/>
<rect width="3.65769" height="3.65769" transform="matrix(-1 0 0 1 174.089 212.128)" fill="black"/>
<rect width="3.65769" height="3.65769" transform="matrix(-1 0 0 1 174.089 218.685)" fill="black"/>
<rect width="4.33117" height="4.33117" transform="matrix(-1 0 0 1 205.116 228.737)" fill="black"/>
<rect width="26.4058" height="3.27845" transform="matrix(-1 0 0 1 200.869 233.059)" fill="black"/>
<rect width="16.2315" height="3.27845" transform="matrix(-1 0 0 1 200.869 184.808)" fill="black"/>
<rect width="18.8656" height="3.27845" transform="matrix(4.37114e-08 -1 -1 -4.37114e-08 193.18 253.042)" fill="black"/>
<rect width="18.8656" height="3.27845" transform="matrix(4.37114e-08 -1 -1 -4.37114e-08 187.666 253.042)" fill="black"/>
<path d="M488.066 269.719L479.375 265.006L439.86 263.615L433.827 268.398L427.646 269.06L421.907 275.388L415.579 281.643L410.06 288.044L405.278 292.459L403.07 301.052L398.435 305.924L399.317 337.343L403.438 342.347L404.615 349.852L410.796 355.297L414.696 360.668L421.98 366.849L425.88 372.22L432.65 373.766L438.242 377.813L478.637 377.371L491.588 372.809L497.106 366.408L503.876 359.932L509.394 353.236L513.735 349.852L514.986 341.639L519.401 337.417L520.137 306.85L515.354 301.052L514.692 295.254L508.29 287.235L501.153 280.907L497.106 275.02L492.838 272.061L488.066 269.719Z" fill="#FFD952"/>
<rect x="435.883" y="260.465" width="46.3855" height="6.08809" fill="black"/>
<rect width="46.3855" height="6.08809" transform="matrix(1 0 0 -1 435.883 382.227)" fill="black"/>
<rect x="499.663" y="278.729" width="5.79818" height="6.08809" fill="black"/>
<rect width="5.79818" height="6.08809" transform="matrix(-1 0 0 1 418.488 278.729)" fill="black"/>
<rect x="493.864" y="272.641" width="5.79818" height="6.08809" fill="black"/>
<rect width="5.79818" height="6.08809" transform="matrix(-1 0 0 1 424.286 272.641)" fill="black"/>
<rect x="505.461" y="284.817" width="5.79818" height="6.08809" fill="black"/>
<rect width="5.79818" height="6.08809" transform="matrix(-1 0 0 1 412.69 284.817)" fill="black"/>
<rect x="511.259" y="290.905" width="5.79818" height="12.1762" fill="black"/>
<rect width="5.79818" height="12.1762" transform="matrix(-1 0 0 1 406.892 290.905)" fill="black"/>
<rect width="5.79818" height="6.08809" transform="matrix(1 0 0 -1 499.663 363.962)" fill="black"/>
<rect x="482.268" y="266.553" width="11.5964" height="6.08809" fill="black"/>
<rect width="11.5964" height="6.08809" transform="matrix(-1 0 0 1 435.883 266.553)" fill="black"/>
<rect x="418.488" y="363.962" width="5.79818" height="6.08809" transform="rotate(180 418.488 363.962)" fill="black"/>
<rect width="5.79818" height="6.08809" transform="matrix(1 0 0 -1 493.864 370.05)" fill="black"/>
<rect x="424.286" y="370.05" width="5.79818" height="6.08809" transform="rotate(180 424.286 370.05)" fill="black"/>
<rect width="5.79818" height="6.08809" transform="matrix(1 0 0 -1 505.461 357.874)" fill="black"/>
<rect x="412.69" y="357.874" width="5.79818" height="6.08809" transform="rotate(180 412.69 357.874)" fill="black"/>
<rect width="5.79818" height="12.1762" transform="matrix(1 0 0 -1 511.259 351.786)" fill="black"/>
<rect x="406.892" y="351.786" width="5.79818" height="12.1762" transform="rotate(180 406.892 351.786)" fill="black"/>
<rect x="517.057" y="303.082" width="5.79818" height="36.5285" fill="black"/>
<rect x="395.295" y="303.082" width="5.79818" height="36.5285" fill="black"/>
<rect width="11.5964" height="6.08809" transform="matrix(1 0 0 -1 482.268 376.139)" fill="black"/>
<rect x="435.883" y="376.139" width="11.5964" height="6.08809" transform="rotate(180 435.883 376.139)" fill="black"/>
<rect x="443.848" y="348.866" width="12.065" height="4.46852" fill="#E29E00"/>
<rect x="475.127" y="347.972" width="12.5118" height="5.36222" fill="#E29E00"/>
<path d="M454.687 315.263H453.685V325.284H427.961V325.285H449.676V331.298H438.651V335.307H436.647V339.316H430.634V335.307H427.961V331.298H423.618V325.285H424.621V319.271H425.957V315.93H422.616V313.258H424.621V311.254H427.293V313.258H427.627V314.929H427.961V304.238H454.687V315.263ZM448.006 297.221H450.678V304.237H435.644V297.221H439.654V294.216H448.006V297.221Z" fill="#FFC74E"/>
<path d="M468.718 297.222H470.723V299.226H468.718V299.227H474.732V301.231H478.741V303.236H482.749V305.24H484.754V307.244H488.763V309.249H490.767V311.253H492.772V315.262H494.776V325.284H492.772V335.307H490.767V341.321H487.639V348.865H481.83V337.312H480.937V345.29H476.021V337.311H474.732V339.316H468.718V341.321H455.69V349.672H449.676V337.98H449.342V346.331H444.33V337.311H442.661V333.302H448.674V327.289H452.683V322.278H454.687V293.213H468.718V297.222ZM453.685 334.304H454.687V333.302H453.685V334.304Z" fill="#FFE37E"/>
<rect x="454.687" y="293.213" width="8.0178" height="8.0178" fill="#FFE37E"/>
<rect x="461.703" y="295.218" width="8.0178" height="2.00445" fill="#FFE37E"/>
<rect x="462.705" y="297.222" width="8.0178" height="2.00445" fill="#FFE37E"/>
<rect x="468.718" y="299.227" width="6.01335" height="2.00445" fill="#FFE37E"/>
<rect x="474.732" y="301.231" width="4.0089" height="2.00445" fill="#FFE37E"/>
<rect x="478.74" y="303.236" width="4.0089" height="2.00445" fill="#FFE37E"/>
<rect x="482.749" y="305.24" width="4.0089" height="2.00445" fill="#FFE37E"/>
<rect x="489.765" y="317.267" width="5.01112" height="8.0178" fill="#FFC74E"/>
<rect x="487.761" y="322.612" width="5.01112" height="8.68594" fill="#FFC74E"/>
<rect x="485.756" y="325.284" width="5.01112" height="10.0222" fill="#FFC74E"/>
<rect x="478.741" y="331.298" width="7.01557" height="6.01335" fill="#FFC74E"/>
<rect x="476.736" y="327.289" width="6.01335" height="4.0089" fill="#FFC74E"/>
<rect x="487.761" y="313.258" width="7.01557" height="6.01335" fill="#FFC74E"/>
<rect x="460.701" y="337.311" width="8.0178" height="4.0089" fill="#FFC74E"/>
<rect x="456.692" y="335.307" width="6.01335" height="4.0089" fill="#FFC74E"/>
<rect x="454.687" y="331.298" width="4.67705" height="4.0089" fill="#FFC74E"/>
<rect x="448.006" y="335.307" width="4.67705" height="4.0089" fill="#FFC74E"/>
<rect x="466.637" y="335.46" width="8.04333" height="4.02166" fill="#FFC74E"/>
<rect x="471.553" y="331.438" width="10.2776" height="7.59648" fill="#FFC74E"/>
<rect x="482.724" y="333.226" width="6.25592" height="8.04333" fill="#FFC74E"/>
<rect x="476.021" y="337.247" width="5.36222" height="10.7244" fill="#FFC74E"/>
<rect x="443.663" y="337.311" width="12.0267" height="12.0267" fill="#FFC74E"/>
<path d="M453.351 304.237V297.556L451.513 295.718L449.175 298.224L446.836 303.068L447.672 304.237L449.175 305.741H449.843L453.351 304.237Z" fill="#FFE37E"/>
<path d="M438.819 300.396L435.478 298.558H433.473L431.97 299.728L429.966 298.893L427.126 298.224L425.957 300.73L423.451 301.732V304.739L425.957 309.917H430.801L433.306 311.754L437.482 312.59L439.821 309.917L441.491 308.748V301.732L438.819 300.396Z" fill="#FFE37E"/>
<rect x="430.634" y="293.213" width="2.00445" height="6.01335" fill="#FFE37E"/>
<rect x="440.656" y="330.296" width="2.00445" height="2.33852" fill="#FFC74E"/>
<rect x="482.277" y="340.375" width="5.36222" height="7.59648" fill="#FFC74E"/>
<rect x="452.683" y="293.213" width="2.00445" height="10.0222" fill="#E29E00"/>
<rect x="450.678" y="291.209" width="2.00445" height="4.0089" fill="#E29E00"/>
<rect x="450.678" y="303.236" width="2.00445" height="2.00445" fill="#E29E00"/>
<rect x="446.669" y="299.227" width="2.00445" height="2.00445" fill="#E29E00"/>
<rect x="442.661" y="293.213" width="2.00445" height="2.00445" fill="#E29E00"/>
<rect x="436.647" y="295.218" width="2.00445" height="2.00445" fill="#E29E00"/>
<rect x="434.643" y="295.218" width="2.00445" height="2.00445" fill="#E29E00"/>
<rect x="432.638" y="295.218" width="2.00445" height="2.00445" fill="#E29E00"/>
<rect x="426.625" y="297.222" width="2.00445" height="2.00445" fill="#E29E00"/>
<rect x="424.62" y="299.227" width="2.00445" height="2.00445" fill="#E29E00"/>
<rect x="426.625" y="303.236" width="2.00445" height="2.00445" fill="#E29E00"/>
<rect x="434.643" y="304.238" width="2.00445" height="2.00445" fill="#E29E00"/>
<rect x="440.656" y="301.231" width="2.00445" height="8.0178" fill="#E29E00"/>
<rect x="424.62" y="307.244" width="2.00445" height="4.0089" fill="#E29E00"/>
<rect x="426.625" y="309.249" width="2.00445" height="4.0089" fill="#E29E00"/>
<rect x="422.616" y="311.253" width="2.00445" height="2.00445" fill="#E29E00"/>
<rect x="422.616" y="329.293" width="4.0089" height="2.00445" fill="#E29E00"/>
<rect x="424.62" y="331.298" width="8.0178" height="2.00445" fill="#E29E00"/>
<rect x="422.616" y="315.262" width="2.00445" height="2.00445" fill="#E29E00"/>
<rect x="424.62" y="315.262" width="2.00445" height="4.0089" fill="#E29E00"/>
<rect x="421.614" y="325.285" width="2.00445" height="4.0089" fill="#E29E00"/>
<rect x="422.616" y="319.272" width="2.00445" height="6.01335" fill="#E29E00"/>
<rect x="426.625" y="313.258" width="2.00445" height="2.00445" fill="#E29E00"/>
<rect x="428.629" y="309.249" width="2.00445" height="2.00445" fill="#E29E00"/>
<rect x="420.612" y="313.258" width="2.00445" height="4.0089" fill="#E29E00"/>
<rect x="422.616" y="301.231" width="2.00445" height="6.01335" fill="#E29E00"/>
<rect x="428.629" y="301.231" width="2.00445" height="4.0089" fill="#E29E00"/>
<rect x="427.961" y="305.24" width="2.00445" height="4.0089" fill="#E29E00"/>
<rect x="432.638" y="293.213" width="2.00445" height="2.00445" fill="#E29E00"/>
<rect x="428.629" y="291.209" width="2.00445" height="8.0178" fill="#E29E00"/>
<rect x="430.634" y="287.2" width="2.00445" height="6.01335" fill="#E29E00"/>
<rect x="434.643" y="297.222" width="2.00445" height="2.00445" fill="#E29E00"/>
<rect x="436.647" y="299.227" width="4.0089" height="2.00445" fill="#E29E00"/>
<rect x="438.652" y="309.249" width="2.00445" height="2.00445" fill="#E29E00"/>
<rect x="430.634" y="309.249" width="2.00445" height="2.00445" fill="#E29E00"/>
<rect x="432.638" y="311.253" width="6.01335" height="2.00445" fill="#E29E00"/>
<rect x="430.634" y="339.316" width="6.01335" height="2.00445" fill="#E29E00"/>
<rect x="430.634" y="299.227" width="2.00445" height="2.00445" fill="#E29E00"/>
<rect x="432.638" y="297.222" width="2.00445" height="2.00445" fill="#E29E00"/>
<rect x="440.656" y="293.213" width="2.00445" height="2.00445" fill="#E29E00"/>
<rect x="438.652" y="293.213" width="2.00445" height="4.0089" fill="#E29E00"/>
<rect x="448.674" y="297.222" width="2.00445" height="2.00445" fill="#E29E00"/>
<rect x="450.678" y="295.218" width="2.00445" height="2.00445" fill="#E29E00"/>
<rect x="448.674" y="305.24" width="2.00445" height="2.00445" fill="#E29E00"/>
<rect x="446.669" y="307.244" width="2.00445" height="2.00445" fill="#E29E00"/>
<rect x="444.665" y="311.253" width="2.00445" height="2.00445" fill="#E29E00"/>
<rect x="446.669" y="313.258" width="2.00445" height="3.34075" fill="#E29E00"/>
<rect x="448.674" y="309.249" width="2.00445" height="7.34965" fill="#E29E00"/>
<rect x="446.669" y="301.231" width="2.00445" height="4.0089" fill="#E29E00"/>
<rect x="448.674" y="295.218" width="2.00445" height="2.00445" fill="#E29E00"/>
<rect x="446.669" y="293.213" width="2.00445" height="4.0089" fill="#E29E00"/>
<rect x="444.665" y="293.213" width="2.00445" height="4.0089" fill="#E29E00"/>
<rect x="454.687" y="291.209" width="8.0178" height="2.00445" fill="#E29E00"/>
<rect x="462.705" y="293.213" width="6.01335" height="2.00445" fill="#E29E00"/>
<rect x="468.718" y="295.218" width="2.00445" height="2.00445" fill="#E29E00"/>
<rect x="482.749" y="303.236" width="2.00445" height="2.00445" fill="#E29E00"/>
<rect x="488.763" y="307.244" width="2.00445" height="2.00445" fill="#E29E00"/>
<rect x="490.767" y="309.249" width="2.00445" height="2.00445" fill="#E29E00"/>
<rect x="492.772" y="311.253" width="2.00445" height="2.00445" fill="#E29E00"/>
<rect x="492.772" y="313.258" width="2.00445" height="2.00445" fill="#E29E00"/>
<rect x="498.785" y="317.267" width="2.00445" height="4.0089" fill="#E29E00"/>
<rect x="470.723" y="297.222" width="4.0089" height="2.00445" fill="#E29E00"/>
<rect x="474.732" y="299.227" width="4.0089" height="2.00445" fill="#E29E00"/>
<rect x="478.741" y="301.231" width="4.0089" height="2.00445" fill="#E29E00"/>
<rect x="484.754" y="305.24" width="4.0089" height="2.00445" fill="#E29E00"/>
<rect x="496.781" y="315.262" width="2.00445" height="2.00445" fill="#E29E00"/>
<rect x="494.776" y="315.262" width="2.00445" height="10.0222" fill="#E29E00"/>
<rect x="492.772" y="325.285" width="2.00445" height="6.01335" fill="#E29E00"/>
<rect x="500.79" y="321.276" width="2.00445" height="6.01335" fill="#E29E00"/>
<rect x="498.785" y="327.289" width="2.00445" height="4.0089" fill="#E29E00"/>
<rect x="490.767" y="331.298" width="2.00445" height="4.0089" fill="#E29E00"/>
<rect x="488.763" y="335.307" width="2.00445" height="6.01335" fill="#E29E00"/>
<rect x="486.746" y="341.269" width="2.23426" height="12.9587" fill="#E29E00"/>
<rect x="480.937" y="337.247" width="1.78741" height="12.065" fill="#E29E00"/>
<rect x="476.021" y="339.316" width="2.00445" height="6.01335" fill="#E29E00"/>
<rect x="479.149" y="347.972" width="1.78741" height="4.91537" fill="#E29E00"/>
<rect x="474.234" y="345.291" width="1.78741" height="8.93703" fill="#E29E00"/>
<rect x="474.681" y="347.525" width="12.5118" height="1.78741" fill="#E29E00"/>
<rect x="474.234" y="352.44" width="13.4056" height="1.78741" fill="#E29E00"/>
<rect x="478.741" y="333.302" width="2.00445" height="4.0089" fill="#E29E00"/>
<rect x="476.736" y="331.298" width="2.00445" height="2.00445" fill="#E29E00"/>
<rect x="476.736" y="335.307" width="2.00445" height="2.00445" fill="#E29E00"/>
<rect x="454.572" y="337.247" width="2.23426" height="16.9804" fill="#E29E00"/>
<rect x="448.763" y="337.247" width="1.78741" height="10.7244" fill="#E29E00"/>
<rect x="442.507" y="337.247" width="2.23426" height="15.193" fill="#E29E00"/>
<rect x="454.572" y="335.307" width="2.23424" height="2.00445" fill="#E29E00"/>
<rect x="452.683" y="333.302" width="2.00445" height="2.00445" fill="#E29E00"/>
<rect x="444.665" y="331.298" width="2.00445" height="2.00445" fill="#E29E00"/>
<rect x="446.669" y="329.293" width="2.00445" height="4.0089" fill="#E29E00"/>
<rect x="454.687" y="309.249" width="2.00445" height="4.0089" fill="#E29E00"/>
<rect x="452.683" y="303.236" width="2.00445" height="6.01335" fill="#E29E00"/>
<rect x="448.674" y="325.285" width="2.00445" height="6.01335" fill="#E29E00"/>
<rect x="450.678" y="321.276" width="2.00445" height="6.01335" fill="#E29E00"/>
<rect x="452.683" y="313.258" width="2.00445" height="10.0222" fill="#E29E00"/>
<rect x="474.732" y="337.311" width="2.00445" height="2.00445" fill="#E29E00"/>
<rect x="468.718" y="339.316" width="6.01335" height="2.00445" fill="#E29E00"/>
<rect x="456.692" y="339.316" width="4.0089" height="2.00445" fill="#E29E00"/>
<rect x="442.507" y="347.525" width="12.5118" height="2.23426" fill="#E29E00"/>
<rect x="442.507" y="352.44" width="12.065" height="1.78741" fill="#E29E00"/>
<rect x="460.701" y="341.32" width="8.0178" height="2.00445" fill="#E29E00"/>
<rect x="474.732" y="327.289" width="2.00445" height="4.0089" fill="#E29E00"/>
<rect x="446.976" y="347.972" width="1.78741" height="6.25592" fill="#E29E00"/>
<rect x="446.976" y="335.46" width="2.00445" height="4.0089" fill="#E29E00"/>
<rect x="440.656" y="332.635" width="2.00445" height="4.67705" fill="#E29E00"/>
<rect x="442.661" y="330.296" width="2.00445" height="3.00667" fill="#E29E00"/>
<rect x="432.638" y="329.293" width="2.00445" height="2.00445" fill="#E29E00"/>
<rect x="426.625" y="333.302" width="2.00445" height="2.00445" fill="#E29E00"/>
<rect x="428.629" y="335.307" width="2.00445" height="4.0089" fill="#E29E00"/>
<rect x="434.643" y="337.311" width="2.00445" height="2.00445" fill="#E29E00"/>
<rect x="436.647" y="335.307" width="2.00445" height="4.0089" fill="#E29E00"/>
<rect x="438.652" y="330.296" width="2.00445" height="5.01112" fill="#E29E00"/>
<path d="M558.243 194.674L549.552 189.96L510.037 188.57L504.004 193.353L497.823 194.015L492.084 200.343L485.756 206.597L480.237 212.999L475.455 217.414L473.247 226.007L468.612 230.879L469.494 262.298L473.615 267.301L474.792 274.807L480.973 280.252L484.873 285.623L492.157 291.804L496.057 297.175L502.827 298.72L508.419 302.767L548.814 302.326L561.765 297.764L567.283 291.362L574.053 284.887L579.571 278.19L583.912 274.807L585.163 266.594L589.578 262.371L590.314 231.805L585.531 226.007L584.869 220.209L578.467 212.19L571.33 205.862L567.283 199.975L563.015 197.016L558.243 194.674Z" fill="#FFD952"/>
<rect x="506.06" y="185.42" width="46.3855" height="6.08809" fill="black"/>
<rect width="46.3855" height="6.08809" transform="matrix(1 0 0 -1 506.06 307.181)" fill="black"/>
<rect x="569.84" y="203.684" width="5.79818" height="6.08809" fill="black"/>
<rect width="5.79818" height="6.08809" transform="matrix(-1 0 0 1 488.665 203.684)" fill="black"/>
<rect x="564.041" y="197.596" width="5.79818" height="6.08809" fill="black"/>
<rect width="5.79818" height="6.08809" transform="matrix(-1 0 0 1 494.463 197.596)" fill="black"/>
<rect x="575.638" y="209.772" width="5.79818" height="6.08809" fill="black"/>
<rect width="5.79818" height="6.08809" transform="matrix(-1 0 0 1 482.867 209.772)" fill="black"/>
<rect x="581.436" y="215.86" width="5.79818" height="12.1762" fill="black"/>
<rect width="5.79818" height="12.1762" transform="matrix(-1 0 0 1 477.069 215.86)" fill="black"/>
<rect width="5.79818" height="6.08809" transform="matrix(1 0 0 -1 569.84 288.917)" fill="black"/>
<rect x="552.445" y="191.508" width="11.5964" height="6.08809" fill="black"/>
<rect width="11.5964" height="6.08809" transform="matrix(-1 0 0 1 506.06 191.508)" fill="black"/>
<rect x="488.665" y="288.917" width="5.79818" height="6.08809" transform="rotate(180 488.665 288.917)" fill="black"/>
<rect width="5.79818" height="6.08809" transform="matrix(1 0 0 -1 564.041 295.005)" fill="black"/>
<rect x="494.463" y="295.005" width="5.79818" height="6.08809" transform="rotate(180 494.463 295.005)" fill="black"/>
<rect width="5.79818" height="6.08809" transform="matrix(1 0 0 -1 575.638 282.829)" fill="black"/>
<rect x="482.867" y="282.829" width="5.79818" height="6.08809" transform="rotate(180 482.867 282.829)" fill="black"/>
<rect width="5.79818" height="12.1762" transform="matrix(1 0 0 -1 581.436 276.741)" fill="black"/>
<rect x="477.069" y="276.741" width="5.79818" height="12.1762" transform="rotate(180 477.069 276.741)" fill="black"/>
<rect x="587.234" y="228.036" width="5.79818" height="36.5285" fill="black"/>
<rect x="465.472" y="228.036" width="5.79818" height="36.5285" fill="black"/>
<rect width="11.5964" height="6.08809" transform="matrix(1 0 0 -1 552.445 301.093)" fill="black"/>
<rect x="506.06" y="301.093" width="11.5964" height="6.08809" transform="rotate(180 506.06 301.093)" fill="black"/>
<path d="M518.649 214.761L517.157 212.608L516.659 212.939L515.166 214.264L513.176 215.258L513.342 212.276L510.855 210.951H507.538L507.04 218.57L505.382 220.558L503.557 218.57L502.231 216.417L501.899 214.761L500.241 212.608L498.085 214.264V218.239L499.743 219.895L501.899 221.883V225.527L500.241 227.349L499.743 238.446L498.085 239.44L497.587 243.25L496.592 244.74L495.929 249.875L498.085 252.525L499.743 254.182H507.703L509.03 252.525L509.528 249.378L511.02 248.716L513.176 246.894L514.835 248.384V249.875L516.825 252.525V263.623L518.649 264.451V268.923L520.142 271.076L520.805 284.989L524.288 285.486V269.585L526.112 268.923L527.936 271.076L528.6 284.658L531.917 284.989L532.248 269.585H541.701L543.692 270.248V273.064L545.35 273.395L545.018 276.376L546.843 278.53L547.506 285.818H551.32V275.714L552.813 275.383L554.969 277.039L556.462 279.027L556.793 285.818H560.276L560.774 277.37L558.618 275.383V273.064L556.296 271.573V246.728L555.301 244.906L552.813 243.25L551.32 241.096H541.536L540.209 242.753H531.751V239.44L530.756 237.453L529.761 235.134L528.766 233.974L528.268 231.655L526.941 230.165L526.112 228.674L524.62 227.349L524.288 224.036L523.127 222.711L521.469 222.214L520.971 219.895L518.649 218.57V214.761Z" fill="#FFE37E"/>
<rect x="498.943" y="213.54" width="2.06325" height="5.60024" fill="#FFC74E"/>
<rect x="515.741" y="213.556" width="2.06325" height="5.60024" fill="#FFC74E"/>
<rect x="500.913" y="217.279" width="1.87673" height="3.75381" fill="#FFC74E"/>
<rect x="514.051" y="215.402" width="1.87673" height="5.63032" fill="#FFC74E"/>
<rect x="517.804" y="219.14" width="1.87673" height="5.63032" fill="#FFC74E"/>
<rect x="521.558" y="222.909" width="1.87673" height="5.63032" fill="#FFC74E"/>
<rect x="519.681" y="224.786" width="1.87673" height="5.63032" fill="#FFC74E"/>
<rect x="515.945" y="221.033" width="1.87673" height="1.8768" fill="#FFC74E"/>
<rect x="523.434" y="228.54" width="1.87673" height="5.63032" fill="#FFC74E"/>
<rect x="527.188" y="234.17" width="1.87673" height="3.7536" fill="#FFC74E"/>
<rect x="525.311" y="228.869" width="1.87673" height="3.7536" fill="#FFC74E"/>
<rect x="529.065" y="236.985" width="1.87673" height="3.7536" fill="#FFC74E"/>
<path d="M496.518 244.583L498.164 243.079H506.065L507.382 245.252L509.192 246.255V252.106L508.205 253.778L499.646 254.279L498 252.44L496.847 251.103L496.518 244.583Z" fill="#FFC74E"/>
<rect x="498.82" y="251.626" width="9.60041" height="1.68654" fill="#FFC74E"/>
<rect x="517.804" y="252.469" width="1.8768" height="10.6025" fill="#FFC74E"/>
<rect x="519.681" y="263.072" width="1.8768" height="7.50712" fill="#FFC74E"/>
<rect x="515.927" y="247.683" width="1.8768" height="3.75352" fill="#FFC74E"/>
<rect x="521.557" y="278.086" width="1.87673" height="6.40785" fill="#FFC74E"/>
<rect x="529.065" y="278.086" width="1.87673" height="6.40785" fill="#FFC74E"/>
<rect x="548.208" y="278.086" width="1.87673" height="6.40785" fill="#FFC74E"/>
<rect x="557.591" y="278.086" width="1.87673" height="6.40785" fill="#FFC74E"/>
<rect x="544.454" y="268.702" width="5.63029" height="3.75352" fill="#FFC74E"/>
<rect x="546.331" y="272.456" width="3.75349" height="5.63032" fill="#FFC74E"/>
<rect x="532.818" y="266.826" width="17.2662" height="1.87665" fill="#FFC74E"/>
<rect x="532.818" y="264.948" width="15.3895" height="1.87673" fill="#FFC74E"/>
<rect x="508.42" y="221.033" width="1.87677" height="5.6303" fill="#E29E00"/>
<rect x="500.913" y="221.033" width="1.87677" height="5.6303" fill="#E29E00"/>
<rect x="497.16" y="213.525" width="1.87677" height="5.6303" fill="#E29E00"/>
<rect x="517.804" y="213.525" width="1.87677" height="5.6303" fill="#E29E00"/>
<rect x="512.174" y="211.648" width="1.87677" height="5.6303" fill="#E29E00"/>
<rect x="506.544" y="209.772" width="1.87677" height="9.38383" fill="#E29E00"/>
<rect x="504.667" y="219.155" width="1.87677" height="7.50706" fill="#E29E00"/>
<rect x="506.555" y="209.772" width="5.63618" height="1.98924" fill="#E29E00"/>
<rect x="508.42" y="217.279" width="5.6303" height="1.87677" fill="#E29E00"/>
<rect x="510.297" y="219.155" width="1.87677" height="1.87677" fill="#E29E00"/>
<rect x="514.051" y="213.525" width="1.87677" height="1.87677" fill="#E29E00"/>
<rect x="515.927" y="211.648" width="1.87677" height="1.87677" fill="#E29E00"/>
<rect x="514.051" y="221.033" width="1.87677" height="1.87677" fill="#E29E00"/>
<rect x="515.927" y="222.909" width="1.87677" height="3.75353" fill="#E29E00"/>
<rect x="502.79" y="217.279" width="1.87677" height="3.75353" fill="#E29E00"/>
<rect x="500.913" y="213.525" width="1.87677" height="3.75353" fill="#E29E00"/>
<rect x="517.804" y="224.786" width="1.87677" height="5.6303" fill="#E29E00"/>
<rect x="523.434" y="222.909" width="1.87677" height="5.6303" fill="#E29E00"/>
<rect x="525.311" y="226.663" width="1.87677" height="3.75353" fill="#E29E00"/>
<rect x="527.188" y="230.416" width="1.87677" height="3.75353" fill="#E29E00"/>
<rect x="514.051" y="247.683" width="1.87677" height="3.75353" fill="#E29E00"/>
<rect x="508.42" y="245.806" width="1.87677" height="7.50706" fill="#E29E00"/>
<rect x="495.283" y="243.929" width="1.87677" height="7.50706" fill="#E29E00"/>
<rect x="515.927" y="238.299" width="1.87677" height="5.6303" fill="#E29E00"/>
<rect x="529.065" y="234.17" width="1.87677" height="3.75353" fill="#E29E00"/>
<rect x="521.558" y="228.54" width="1.87677" height="5.6303" fill="#E29E00"/>
<rect x="525.311" y="232.293" width="1.87677" height="5.6303" fill="#E29E00"/>
<rect x="530.941" y="237.923" width="1.87677" height="5.6303" fill="#E29E00"/>
<rect x="532.818" y="242.052" width="1.87677" height="11.2606" fill="#E29E00"/>
<rect x="538.824" y="245.806" width="1.87677" height="9.38383" fill="#E29E00"/>
<rect x="517.804" y="264.949" width="1.87677" height="5.6303" fill="#E29E00"/>
<rect x="515.927" y="252.938" width="1.87677" height="12.0113" fill="#E29E00"/>
<rect x="544.454" y="243.929" width="1.87677" height="11.2606" fill="#E29E00"/>
<rect x="550.084" y="243.929" width="1.87677" height="11.2606" fill="#E29E00"/>
<rect x="555.715" y="245.806" width="1.87677" height="26.6501" fill="#E29E00"/>
<rect x="515.927" y="219.155" width="1.87677" height="1.87677" fill="#E29E00"/>
<rect x="499.036" y="211.648" width="1.87677" height="1.87677" fill="#E29E00"/>
<rect x="499.036" y="219.155" width="1.87677" height="1.87677" fill="#E29E00"/>
<rect x="519.681" y="230.416" width="1.87677" height="1.87677" fill="#E29E00"/>
<rect x="523.434" y="234.17" width="1.87677" height="1.87677" fill="#E29E00"/>
<rect x="521.558" y="236.047" width="1.87677" height="1.87677" fill="#E29E00"/>
<rect x="519.681" y="237.923" width="1.87677" height="1.87677" fill="#E29E00"/>
<rect x="514.051" y="236.422" width="1.87677" height="1.87677" fill="#E29E00"/>
<rect x="512.2" y="234.545" width="1.85084" height="1.87677" fill="#E29E00"/>
<rect x="512.174" y="245.806" width="1.87677" height="1.87677" fill="#E29E00"/>
<rect x="510.297" y="247.683" width="1.87677" height="1.87677" fill="#E29E00"/>
<rect x="506.544" y="243.929" width="1.87677" height="1.87677" fill="#E29E00"/>
<rect x="502.415" y="247.683" width="1.87677" height="1.87677" fill="#E29E00"/>
<rect x="498.661" y="247.683" width="1.87677" height="1.87677" fill="#E29E00"/>
<rect x="497.16" y="251.436" width="1.87677" height="1.87677" fill="#E29E00"/>
<rect x="514.051" y="243.929" width="1.87677" height="1.87677" fill="#E29E00"/>
<rect x="497.16" y="238.299" width="1.87677" height="3.75353" fill="#E29E00"/>
<rect x="499.036" y="226.462" width="1.87677" height="13.7135" fill="#E29E00"/>
<rect x="527.188" y="237.923" width="1.87677" height="1.87677" fill="#E29E00"/>
<rect x="530.941" y="253.313" width="1.87677" height="1.87677" fill="#E29E00"/>
<rect x="536.947" y="255.189" width="1.87677" height="1.87677" fill="#E29E00"/>
<rect x="536.947" y="243.929" width="1.87677" height="1.87677" fill="#E29E00"/>
<rect x="527.188" y="261.195" width="1.87677" height="1.87677" fill="#E29E00"/>
<rect x="525.311" y="255.189" width="1.87677" height="1.87677" fill="#E29E00"/>
<rect x="542.577" y="242.052" width="1.87677" height="1.87677" fill="#E29E00"/>
<rect x="542.577" y="255.189" width="1.87677" height="1.87677" fill="#E29E00"/>
<rect x="529.065" y="243.553" width="1.87677" height="1.87677" fill="#E29E00"/>
<rect x="553.838" y="257.066" width="1.87677" height="1.87677" fill="#E29E00"/>
<rect x="548.208" y="242.052" width="1.87677" height="1.87677" fill="#E29E00"/>
<rect x="551.961" y="242.052" width="1.87677" height="1.87677" fill="#E29E00"/>
<rect x="553.838" y="243.929" width="1.87677" height="1.87677" fill="#E29E00"/>
<rect x="557.591" y="245.806" width="1.87677" height="1.87677" fill="#E29E00"/>
<rect x="559.468" y="247.683" width="1.87677" height="3.75353" fill="#E29E00"/>
<rect x="557.591" y="272.456" width="1.87677" height="3.75353" fill="#E29E00"/>
<rect x="550.084" y="272.456" width="1.87677" height="3.75353" fill="#E29E00"/>
<rect x="544.454" y="274.333" width="1.87677" height="3.75353" fill="#E29E00"/>
<rect x="561.345" y="251.436" width="1.87677" height="3.75353" fill="#E29E00"/>
<rect x="559.468" y="255.189" width="1.87677" height="5.6303" fill="#E29E00"/>
<rect x="559.468" y="276.209" width="1.87677" height="11.2606" fill="#E29E00"/>
<rect x="555.715" y="278.086" width="1.87677" height="9.38383" fill="#E29E00"/>
<rect x="550.084" y="276.209" width="1.87677" height="11.2606" fill="#E29E00"/>
<rect x="546.331" y="278.086" width="1.87677" height="9.38383" fill="#E29E00"/>
<rect x="530.941" y="266.826" width="1.87677" height="20.6445" fill="#E29E00"/>
<rect x="527.188" y="270.204" width="1.87677" height="17.2663" fill="#E29E00"/>
<rect x="523.434" y="266.45" width="1.87677" height="21.0198" fill="#E29E00"/>
<rect x="519.681" y="270.579" width="1.87677" height="16.8909" fill="#E29E00"/>
<rect x="548.208" y="255.189" width="1.87677" height="1.87677" fill="#E29E00"/>
<rect x="525.311" y="239.8" width="1.87677" height="1.87677" fill="#E29E00"/>
<rect x="523.434" y="241.677" width="1.87677" height="1.87677" fill="#E29E00"/>
<rect x="529.065" y="239.8" width="1.87677" height="1.87677" fill="#E29E00"/>
<rect x="534.695" y="242.052" width="6.00565" height="1.87677" fill="#E29E00"/>
<rect x="527.188" y="245.43" width="1.87677" height="1.87677" fill="#E29E00"/>
<rect x="525.311" y="247.307" width="1.87677" height="1.87677" fill="#E29E00"/>
<rect x="540.701" y="240.176" width="11.2606" height="1.87677" fill="#E29E00"/>
<rect x="551.961" y="258.943" width="1.87677" height="1.87677" fill="#E29E00"/>
<rect x="550.084" y="260.82" width="1.87677" height="1.87677" fill="#E29E00"/>
<rect x="550.084" y="264.949" width="1.87677" height="1.87677" fill="#E29E00"/>
<rect x="525.311" y="268.327" width="1.87677" height="1.87677" fill="#E29E00"/>
<rect x="529.065" y="272.08" width="1.87677" height="1.87677" fill="#E29E00"/>
<rect x="529.065" y="276.209" width="1.87677" height="1.87677" fill="#E29E00"/>
<rect x="521.557" y="272.08" width="1.87677" height="1.87677" fill="#E29E00"/>
<rect x="521.557" y="276.209" width="1.87677" height="1.87677" fill="#E29E00"/>
<rect x="548.208" y="266.826" width="1.87677" height="1.87677" fill="#E29E00"/>
<rect x="555.715" y="274.333" width="1.87677" height="1.87677" fill="#E29E00"/>
<rect x="542.577" y="272.456" width="5.6303" height="1.87677" fill="#E29E00"/>
<rect x="548.208" y="270.579" width="5.6303" height="1.87677" fill="#E29E00"/>
<rect x="515.927" y="263.072" width="11.2606" height="1.87677" fill="#E29E00"/>
<rect x="532.443" y="268.702" width="15.7648" height="1.87677" fill="#E29E00"/>
<rect x="515.927" y="257.066" width="9.38383" height="1.87677" fill="#E29E00"/>
<rect x="515.927" y="251.436" width="7.50706" height="1.87677" fill="#E29E00"/>
<rect x="498.661" y="253.313" width="9.75918" height="1.87677" fill="#E29E00"/>
<rect x="497.16" y="242.053" width="9.38383" height="1.87677" fill="#E29E00"/>
<rect x="551.961" y="274.333" width="1.87677" height="1.87677" fill="#E29E00"/>
<rect x="555.715" y="283.716" width="4.50424" height="3.75353" fill="#E29E00"/>
<rect x="553.838" y="276.209" width="1.87677" height="1.87677" fill="#E29E00"/>
<rect x="548.208" y="276.209" width="1.87677" height="1.87677" fill="#E29E00"/>
<rect x="546.331" y="283.716" width="4.50424" height="3.75353" fill="#E29E00"/>
<rect x="542.577" y="270.579" width="1.87677" height="1.87677" fill="#E29E00"/>
<rect x="521.558" y="243.553" width="1.87677" height="1.87677" fill="#E29E00"/>
<rect x="527.188" y="283.716" width="4.50424" height="3.75353" fill="#E29E00"/>
<rect x="521.558" y="221.033" width="1.87677" height="1.87677" fill="#E29E00"/>
<rect x="519.681" y="219.155" width="1.87677" height="7.50706" fill="#E29E00"/>
<rect x="519.681" y="283.716" width="4.50424" height="3.75353" fill="#E29E00"/>
<path d="M513.058 227.527L509.93 225.854H508.053L506.645 226.919L504.769 226.158L502.11 225.55L501.015 227.831L498.669 228.744V231.481L501.015 236.196H505.551L507.897 237.869L511.807 238.629L513.996 236.196L515.56 235.131V228.744L513.058 227.527Z" fill="#FFE37E"/>
<rect x="501.641" y="224.637" width="3.75352" height="1.82499" fill="#E29E00"/>
<rect x="499.764" y="226.462" width="1.87677" height="1.82499" fill="#E29E00"/>
<rect x="501.641" y="230.112" width="1.87677" height="1.82499" fill="#E29E00"/>
<rect x="509.148" y="231.025" width="1.87677" height="1.82499" fill="#E29E00"/>
<rect x="514.778" y="228.287" width="1.87677" height="7.29994" fill="#E29E00"/>
<rect x="499.764" y="233.762" width="1.87677" height="3.64997" fill="#E29E00"/>
<rect x="501.641" y="235.588" width="1.87677" height="1.82497" fill="#E29E00"/>
<rect x="503.518" y="235.588" width="1.87677" height="1.82499" fill="#E29E00"/>
<rect x="497.887" y="228.287" width="1.87677" height="5.47496" fill="#E29E00"/>
<rect x="503.518" y="228.287" width="1.87677" height="3.64997" fill="#E29E00"/>
<rect x="502.892" y="231.937" width="1.87677" height="3.64997" fill="#E29E00"/>
<rect x="509.148" y="224.637" width="1.98333" height="1.82499" fill="#E29E00"/>
<rect x="511.025" y="226.462" width="3.75354" height="1.82499" fill="#E29E00"/>
<rect x="512.901" y="235.588" width="1.87677" height="1.82499" fill="#E29E00"/>
<rect x="505.394" y="235.588" width="1.87677" height="1.82499" fill="#E29E00"/>
<rect x="507.271" y="237.412" width="5.63031" height="1.82499" fill="#E29E00"/>
<rect x="505.394" y="226.462" width="1.87677" height="1.82499" fill="#E29E00"/>
<rect x="507.271" y="224.637" width="1.87677" height="1.82499" fill="#E29E00"/>
<path d="M599.606 314.408L594.159 311.454L569.393 310.583L565.612 313.58L561.738 313.995L558.141 317.961L554.175 321.881L550.716 325.893L547.718 328.66L546.335 334.046L543.43 337.099L543.983 356.791L546.566 359.927L547.303 364.631L551.177 368.043L553.621 371.41L558.187 375.283L560.631 378.65L564.874 379.618L568.379 382.155L593.696 381.878L601.813 379.019L605.271 375.007L609.514 370.949L612.973 366.751L615.694 364.631L616.478 359.483L619.245 356.837L619.706 337.68L616.708 334.046L616.293 330.412L612.281 325.386L607.808 321.42L605.271 317.731L602.597 315.876L599.606 314.408Z" fill="#FFD952"/>
<rect x="566.9" y="308.608" width="29.0717" height="3.81567" fill="black"/>
<rect width="29.0717" height="3.81567" transform="matrix(1 0 0 -1 566.9 384.921)" fill="black"/>
<rect x="606.874" y="320.055" width="3.63397" height="3.81567" fill="black"/>
<rect width="3.63397" height="3.81567" transform="matrix(-1 0 0 1 555.998 320.055)" fill="black"/>
<rect x="603.24" y="316.24" width="3.63397" height="3.81567" fill="black"/>
<rect width="3.63397" height="3.81567" transform="matrix(-1 0 0 1 559.632 316.24)" fill="black"/>
<rect x="610.508" y="323.871" width="3.63397" height="3.81567" fill="black"/>
<rect width="3.63397" height="3.81567" transform="matrix(-1 0 0 1 552.364 323.871)" fill="black"/>
<rect x="614.141" y="327.687" width="3.63397" height="7.63133" fill="black"/>
<rect width="3.63397" height="7.63133" transform="matrix(-1 0 0 1 548.73 327.687)" fill="black"/>
<rect width="3.63397" height="3.81567" transform="matrix(1 0 0 -1 606.874 373.475)" fill="black"/>
<rect x="595.972" y="312.424" width="7.26794" height="3.81567" fill="black"/>
<rect width="7.26794" height="3.81567" transform="matrix(-1 0 0 1 566.9 312.424)" fill="black"/>
<rect x="555.998" y="373.475" width="3.63397" height="3.81567" transform="rotate(180 555.998 373.475)" fill="black"/>
<rect width="3.63397" height="3.81567" transform="matrix(1 0 0 -1 603.24 377.29)" fill="black"/>
<rect x="559.632" y="377.29" width="3.63397" height="3.81567" transform="rotate(180 559.632 377.29)" fill="black"/>
<rect width="3.63397" height="3.81567" transform="matrix(1 0 0 -1 610.508 369.658)" fill="black"/>
<rect x="552.364" y="369.658" width="3.63397" height="3.81567" transform="rotate(180 552.364 369.658)" fill="black"/>
<rect width="3.63397" height="7.63133" transform="matrix(1 0 0 -1 614.141 365.843)" fill="black"/>
<rect x="548.73" y="365.843" width="3.63397" height="7.63133" transform="rotate(180 548.73 365.843)" fill="black"/>
<rect x="617.775" y="335.318" width="3.63397" height="22.894" fill="black"/>
<rect x="541.462" y="335.318" width="3.63397" height="22.894" fill="black"/>
<rect width="7.26794" height="3.81567" transform="matrix(1 0 0 -1 595.972 381.106)" fill="black"/>
<rect x="566.9" y="381.106" width="7.26794" height="3.81567" transform="rotate(180 566.9 381.106)" fill="black"/>
<path d="M585.863 327.214L583.96 324.93L572.919 324.169L569.493 327.214L566.828 329.879L566.067 358.051L569.493 360.335L571.777 363.381H591.955L593.858 361.858L596.904 360.716L600.33 358.432L601.853 356.148H602.614L605.66 353.102V350.056L597.665 349.295L594.619 347.391L591.574 343.584L589.29 341.681L588.909 329.879L585.863 327.214Z" fill="#FFE37E"/>
<path d="M596.139 348.34C599.661 348.34 603.184 348.318 606.874 348.318V354.188C605.867 354.188 605.364 354.188 604.525 354.188C604.525 353.014 604.525 350.834 604.525 350.834C603.016 350.834 598.571 350.834 596.139 350.834C596.139 350.834 596.139 349.179 596.139 348.34Z" fill="#E29E00"/>
<path d="M587.836 329.029C588.507 329.029 589.262 329.029 590.352 329.029C590.352 329.029 590.352 333.558 590.352 335.822C590.352 338.003 590.352 340.267 590.352 342.447C589.598 342.447 588.759 342.447 587.836 342.447C587.836 337.835 587.836 333.474 587.836 329.029Z" fill="#E29E00"/>
<rect x="564.987" y="359.22" width="30.1913" height="2.69029" transform="rotate(-90 564.987 359.22)" fill="#E29E00"/>
<rect x="561.37" y="337.597" width="16.4525" height="4.84639" fill="#E29E00"/>
<path d="M604.609 354.189C604.609 354.943 604.609 355.782 604.609 356.704C603.351 356.704 602.261 356.704 601.255 356.704C601.255 355.95 601.255 355.195 601.255 354.189C602.513 354.189 603.603 354.189 604.609 354.189Z" fill="#E29E00"/>
<path d="M593.179 353.827C593.179 354.557 593.179 355.391 593.179 356.537C591.573 356.537 589.878 356.537 588.004 356.537C588.004 355.807 588.004 354.869 588.004 353.827C589.789 353.827 591.484 353.827 593.179 353.827Z" fill="#E29E00"/>
<path d="M598.006 359.911C598.006 360.64 598.006 361.474 598.006 362.62C596.4 362.62 594.704 362.62 592.831 362.62C592.831 361.891 592.831 360.953 592.831 359.911C594.615 359.911 596.311 359.911 598.006 359.911Z" fill="#E29E00"/>
<path d="M601.506 356.704C601.506 357.568 601.506 358.554 601.506 359.911C600.42 359.911 599.273 359.911 598.006 359.911C598.006 359.047 598.006 357.938 598.006 356.704C599.213 356.704 600.36 356.704 601.506 356.704Z" fill="#E29E00"/>
<rect x="590.178" y="342.444" width="3.00149" height="3.00149" fill="#E29E00"/>
<rect x="571.063" y="331.518" width="2.68369" height="2.68369" fill="#E29E00"/>
<rect x="567.746" y="325.717" width="3.41578" height="3.41578" fill="#E29E00"/>
<rect x="584.482" y="325.614" width="3.41578" height="3.41578" fill="#E29E00"/>
<rect x="576.431" y="331.518" width="2.68369" height="2.68369" fill="#E29E00"/>
<rect x="593.137" y="345.445" width="3.00149" height="3.00149" fill="#E29E00"/>
<rect x="593.137" y="350.826" width="3.00149" height="3.00149" fill="#E29E00"/>
<rect x="567.677" y="359.074" width="3.55415" height="3.55415" fill="#E29E00"/>
<rect x="571.162" y="362.621" width="21.6685" height="2.69029" fill="#E29E00"/>
<rect x="571.162" y="323.026" width="13.3196" height="2.69029" fill="#E29E00"/>
<rect x="577.272" y="375.72" width="12.1824" height="3.04561" transform="rotate(-90 577.272 375.72)" fill="#E29E00"/>
<rect x="581.841" y="375.72" width="12.1824" height="3.04561" transform="rotate(-90 581.841 375.72)" fill="#E29E00"/>
<rect x="567.677" y="342.444" width="3.55405" height="16.6308" fill="#FFC649"/>
<rect x="571.231" y="346.946" width="3.19776" height="15.6829" fill="#FFC649"/>
<rect x="574.429" y="350.826" width="3.19776" height="11.8029" fill="#FFC649"/>
<rect x="577.516" y="359.911" width="15.3153" height="2.71752" fill="#FFC649"/>
<rect x="588.004" y="350.826" width="5.17516" height="3.00156" fill="#FFC649"/>
<rect x="590.178" y="348.446" width="5.96122" height="2.3792" fill="#FFC649"/>
<path d="M365.651 300.253H362.05V293.075H358.473V289.498H354.896V285.921H347.718V282.321H340.541V278.744H322.608V282.321H315.43V285.921H308.276V289.498H304.676V293.075H301.098V300.253H297.498V307.431H293.921V325.363H297.498V332.541H301.098V339.695H304.676V343.296H308.276V346.873H315.43V350.474H322.608V354.051H340.541V350.474H347.718V346.873H354.896V343.296H358.473V339.695H362.05V332.541H365.651V325.363H369.228V307.431H365.651V300.253ZM354.896 314.609H351.295V318.186H347.718V321.786H344.118V325.363H340.541V328.94H336.963V321.786H322.608V325.363H319.031V328.94H322.608V332.541H326.185V336.118H315.43V332.541H311.853V328.94H308.276V311.008H311.853V307.431H315.43V303.854H336.963V296.676H340.541V300.253H344.118V303.854H347.718V307.431H351.295V311.008H354.896V314.609Z" fill="#A7EEEE"/>
</svg>
